ISO-10303-21;
HEADER;
/* Generated by software containing ST-Developer
 * from STEP Tools, Inc. (www.steptools.com) 
 */
/* OPTION: using custom renumber hook */

FILE_DESCRIPTION(
/* description */ ('STEP AP242 Edition 2',
'CAx-IF Rec.Pracs.---Representation and Presentation of Product Manufa
cturing Information (PMI)---4.0---2014-10-13',
'CAx-IF Rec.Pracs.---3D Tessellated Geometry---0.4---2014-09-14','2;1',
'CAx-IF Rec.Pracs.---User Defined Attributes---1.5---2016-08-15'),
/* implementation_level */ '2;1');

FILE_NAME(
/* name */ 'Part Studio 1 - Left Button',
/* time_stamp */ '2026-06-04T23:59:10Z',
/* author */ (''),
/* organization */ (''),
/* preprocessor_version */ 'ST-DEVELOPER v20',
/* originating_system */ 'ONSHAPE BY PTC INC, 1.215',
/* authorisation */ '  ');

FILE_SCHEMA (('AP242_MANAGED_MODEL_BASED_3D_ENGINEERING_MIM_LF { 1 0 10303 442 3 1 4 }'));
ENDSEC;

DATA;
#10=SHAPE_REPRESENTATION_RELATIONSHIP('','',#883,#11);
#11=ADVANCED_BREP_SHAPE_REPRESENTATION('',(#881),#1531);
#12=B_SPLINE_SURFACE_WITH_KNOTS('',3,1,((#1348,#1349),(#1350,#1351),(#1352,
#1353),(#1354,#1355)),.SURF_OF_LINEAR_EXTRUSION.,.F.,.F.,.F.,(4,4),(2,2),
(0.,1.),(0.,1.),.PIECEWISE_BEZIER_KNOTS.);
#13=B_SPLINE_SURFACE_WITH_KNOTS('',3,1,((#1377,#1378),(#1379,#1380),(#1381,
#1382),(#1383,#1384)),.SURF_OF_LINEAR_EXTRUSION.,.F.,.F.,.F.,(4,4),(2,2),
(0.,1.),(0.,1.),.PIECEWISE_BEZIER_KNOTS.);
#14=B_SPLINE_SURFACE_WITH_KNOTS('',3,1,((#1390,#1391),(#1392,#1393),(#1394,
#1395),(#1396,#1397)),.SURF_OF_LINEAR_EXTRUSION.,.F.,.F.,.F.,(4,4),(2,2),
(0.,1.),(0.,1.),.PIECEWISE_BEZIER_KNOTS.);
#15=B_SPLINE_SURFACE_WITH_KNOTS('',3,1,((#1403,#1404),(#1405,#1406),(#1407,
#1408),(#1409,#1410)),.SURF_OF_LINEAR_EXTRUSION.,.F.,.F.,.F.,(4,4),(2,2),
(0.,1.),(0.,1.),.PIECEWISE_BEZIER_KNOTS.);
#16=B_SPLINE_SURFACE_WITH_KNOTS('',3,1,((#1416,#1417),(#1418,#1419),(#1420,
#1421),(#1422,#1423)),.SURF_OF_LINEAR_EXTRUSION.,.F.,.F.,.F.,(4,4),(2,2),
(0.,1.),(0.,1.),.PIECEWISE_BEZIER_KNOTS.);
#17=B_SPLINE_SURFACE_WITH_KNOTS('',3,1,((#1429,#1430),(#1431,#1432),(#1433,
#1434),(#1435,#1436)),.SURF_OF_LINEAR_EXTRUSION.,.F.,.F.,.F.,(4,4),(2,2),
(0.,1.),(0.,1.),.PIECEWISE_BEZIER_KNOTS.);
#18=B_SPLINE_SURFACE_WITH_KNOTS('',3,1,((#1462,#1463),(#1464,#1465),(#1466,
#1467),(#1468,#1469)),.SURF_OF_LINEAR_EXTRUSION.,.F.,.F.,.F.,(4,4),(2,2),
(0.,1.),(0.,1.),.PIECEWISE_BEZIER_KNOTS.);
#19=B_SPLINE_SURFACE_WITH_KNOTS('',3,1,((#1479,#1480),(#1481,#1482),(#1483,
#1484),(#1485,#1486)),.SURF_OF_LINEAR_EXTRUSION.,.F.,.F.,.F.,(4,4),(2,2),
(0.,1.),(0.,1.),.PIECEWISE_BEZIER_KNOTS.);
#20=B_SPLINE_SURFACE_WITH_KNOTS('',3,1,((#1492,#1493),(#1494,#1495),(#1496,
#1497),(#1498,#1499)),.SURF_OF_LINEAR_EXTRUSION.,.F.,.F.,.F.,(4,4),(2,2),
(0.,1.),(0.,1.),.PIECEWISE_BEZIER_KNOTS.);
#21=B_SPLINE_SURFACE_WITH_KNOTS('',3,1,((#1505,#1506),(#1507,#1508),(#1509,
#1510),(#1511,#1512)),.SURF_OF_LINEAR_EXTRUSION.,.F.,.F.,.F.,(4,4),(2,2),
(0.,1.),(0.,1.),.PIECEWISE_BEZIER_KNOTS.);
#22=B_SPLINE_SURFACE_WITH_KNOTS('',3,1,((#1518,#1519),(#1520,#1521),(#1522,
#1523),(#1524,#1525)),.SURF_OF_LINEAR_EXTRUSION.,.F.,.F.,.F.,(4,4),(2,2),
(0.,1.),(0.,1.),.PIECEWISE_BEZIER_KNOTS.);
#23=CYLINDRICAL_SURFACE('',#900,0.0148326715622189);
#24=CYLINDRICAL_SURFACE('',#908,0.0133140651124382);
#25=CYLINDRICAL_SURFACE('',#917,0.00165575589994493);
#26=CYLINDRICAL_SURFACE('',#919,0.00273167951809401);
#27=CYLINDRICAL_SURFACE('',#926,0.00143244810177661);
#28=CYLINDRICAL_SURFACE('',#928,0.00155660344584912);
#29=CYLINDRICAL_SURFACE('',#931,0.00136616753537578);
#30=CYLINDRICAL_SURFACE('',#933,0.000926851486686458);
#31=CYLINDRICAL_SURFACE('',#935,0.00098200969747086);
#32=CYLINDRICAL_SURFACE('',#937,0.000858466071740579);
#33=CYLINDRICAL_SURFACE('',#939,0.00113428826963113);
#34=CYLINDRICAL_SURFACE('',#942,0.00137167500660485);
#35=CYLINDRICAL_SURFACE('',#944,0.00147063572427734);
#36=B_SPLINE_CURVE_WITH_KNOTS('',2,(#1185,#1186,#1187),.UNSPECIFIED.,.F.,
 .F.,(3,3),(0.,1.),.PIECEWISE_BEZIER_KNOTS.);
#37=B_SPLINE_CURVE_WITH_KNOTS('',2,(#1192,#1193,#1194),.UNSPECIFIED.,.F.,
 .F.,(3,3),(0.,1.),.PIECEWISE_BEZIER_KNOTS.);
#38=B_SPLINE_CURVE_WITH_KNOTS('',2,(#1196,#1197,#1198),.UNSPECIFIED.,.F.,
 .F.,(3,3),(0.,1.),.PIECEWISE_BEZIER_KNOTS.);
#39=B_SPLINE_CURVE_WITH_KNOTS('',2,(#1200,#1201,#1202),.UNSPECIFIED.,.F.,
 .F.,(3,3),(0.,1.),.PIECEWISE_BEZIER_KNOTS.);
#40=B_SPLINE_CURVE_WITH_KNOTS('',2,(#1204,#1205,#1206),.UNSPECIFIED.,.F.,
 .F.,(3,3),(0.,1.),.PIECEWISE_BEZIER_KNOTS.);
#41=B_SPLINE_CURVE_WITH_KNOTS('',2,(#1210,#1211,#1212),.UNSPECIFIED.,.F.,
 .F.,(3,3),(0.,1.),.PIECEWISE_BEZIER_KNOTS.);
#42=B_SPLINE_CURVE_WITH_KNOTS('',2,(#1224,#1225,#1226),.UNSPECIFIED.,.F.,
 .F.,(3,3),(0.,1.),.PIECEWISE_BEZIER_KNOTS.);
#43=B_SPLINE_CURVE_WITH_KNOTS('',2,(#1228,#1229,#1230),.UNSPECIFIED.,.F.,
 .F.,(3,3),(0.,1.),.PIECEWISE_BEZIER_KNOTS.);
#44=B_SPLINE_CURVE_WITH_KNOTS('',2,(#1232,#1233,#1234),.UNSPECIFIED.,.F.,
 .F.,(3,3),(0.,1.),.PIECEWISE_BEZIER_KNOTS.);
#45=B_SPLINE_CURVE_WITH_KNOTS('',2,(#1236,#1237,#1238),.UNSPECIFIED.,.F.,
 .F.,(3,3),(0.,1.),.PIECEWISE_BEZIER_KNOTS.);
#46=B_SPLINE_CURVE_WITH_KNOTS('',2,(#1240,#1241,#1242),.UNSPECIFIED.,.F.,
 .F.,(3,3),(0.,1.),.PIECEWISE_BEZIER_KNOTS.);
#47=B_SPLINE_CURVE_WITH_KNOTS('',2,(#1358,#1359,#1360),.UNSPECIFIED.,.F.,
 .F.,(3,3),(0.,1.),.PIECEWISE_BEZIER_KNOTS.);
#48=B_SPLINE_CURVE_WITH_KNOTS('',2,(#1387,#1388,#1389),.UNSPECIFIED.,.F.,
 .F.,(3,3),(0.,1.),.PIECEWISE_BEZIER_KNOTS.);
#49=B_SPLINE_CURVE_WITH_KNOTS('',2,(#1400,#1401,#1402),.UNSPECIFIED.,.F.,
 .F.,(3,3),(0.,1.),.PIECEWISE_BEZIER_KNOTS.);
#50=B_SPLINE_CURVE_WITH_KNOTS('',2,(#1413,#1414,#1415),.UNSPECIFIED.,.F.,
 .F.,(3,3),(0.,1.),.PIECEWISE_BEZIER_KNOTS.);
#51=B_SPLINE_CURVE_WITH_KNOTS('',2,(#1426,#1427,#1428),.UNSPECIFIED.,.F.,
 .F.,(3,3),(0.,1.),.PIECEWISE_BEZIER_KNOTS.);
#52=B_SPLINE_CURVE_WITH_KNOTS('',2,(#1439,#1440,#1441),.UNSPECIFIED.,.F.,
 .F.,(3,3),(0.,1.),.PIECEWISE_BEZIER_KNOTS.);
#53=B_SPLINE_CURVE_WITH_KNOTS('',2,(#1472,#1473,#1474),.UNSPECIFIED.,.F.,
 .F.,(3,3),(0.,1.),.PIECEWISE_BEZIER_KNOTS.);
#54=B_SPLINE_CURVE_WITH_KNOTS('',2,(#1489,#1490,#1491),.UNSPECIFIED.,.F.,
 .F.,(3,3),(0.,1.),.PIECEWISE_BEZIER_KNOTS.);
#55=B_SPLINE_CURVE_WITH_KNOTS('',2,(#1502,#1503,#1504),.UNSPECIFIED.,.F.,
 .F.,(3,3),(0.,1.),.PIECEWISE_BEZIER_KNOTS.);
#56=B_SPLINE_CURVE_WITH_KNOTS('',2,(#1515,#1516,#1517),.UNSPECIFIED.,.F.,
 .F.,(3,3),(0.,1.),.PIECEWISE_BEZIER_KNOTS.);
#57=B_SPLINE_CURVE_WITH_KNOTS('',2,(#1526,#1527,#1528),.UNSPECIFIED.,.F.,
 .F.,(3,3),(0.,1.),.PIECEWISE_BEZIER_KNOTS.);
#58=CIRCLE('',#886,0.0133140651124382);
#59=CIRCLE('',#887,0.00273167951809401);
#60=CIRCLE('',#888,0.00165575589994493);
#61=CIRCLE('',#889,0.00143244810177661);
#62=CIRCLE('',#890,0.00147063572427734);
#63=CIRCLE('',#891,0.00137167500660485);
#64=CIRCLE('',#892,0.00113428826963113);
#65=CIRCLE('',#893,0.000858466071740579);
#66=CIRCLE('',#894,0.00098200969747086);
#67=CIRCLE('',#895,0.000926851486686458);
#68=CIRCLE('',#896,0.00136616753537578);
#69=CIRCLE('',#897,0.00155660344584912);
#70=CIRCLE('',#901,0.0148326715622189);
#71=CIRCLE('',#902,0.0148326715622189);
#72=CIRCLE('',#905,0.0133140651124382);
#73=CIRCLE('',#918,0.00165575589994493);
#74=CIRCLE('',#920,0.00273167951809401);
#75=CIRCLE('',#927,0.00143244810177661);
#76=CIRCLE('',#929,0.00155660344584912);
#77=CIRCLE('',#932,0.00136616753537578);
#78=CIRCLE('',#934,0.000926851486686458);
#79=CIRCLE('',#936,0.00098200969747086);
#80=CIRCLE('',#938,0.000858466071740579);
#81=CIRCLE('',#940,0.00113428826963113);
#82=CIRCLE('',#943,0.00137167500660485);
#83=CIRCLE('',#945,0.00147063572427734);
#84=ORIENTED_EDGE('',*,*,#336,.T.);
#85=ORIENTED_EDGE('',*,*,#337,.T.);
#86=ORIENTED_EDGE('',*,*,#338,.T.);
#87=ORIENTED_EDGE('',*,*,#339,.T.);
#88=ORIENTED_EDGE('',*,*,#340,.T.);
#89=ORIENTED_EDGE('',*,*,#341,.T.);
#90=ORIENTED_EDGE('',*,*,#342,.T.);
#91=ORIENTED_EDGE('',*,*,#343,.T.);
#92=ORIENTED_EDGE('',*,*,#344,.T.);
#93=ORIENTED_EDGE('',*,*,#345,.T.);
#94=ORIENTED_EDGE('',*,*,#346,.T.);
#95=ORIENTED_EDGE('',*,*,#347,.T.);
#96=ORIENTED_EDGE('',*,*,#348,.T.);
#97=ORIENTED_EDGE('',*,*,#349,.T.);
#98=ORIENTED_EDGE('',*,*,#350,.T.);
#99=ORIENTED_EDGE('',*,*,#351,.T.);
#100=ORIENTED_EDGE('',*,*,#352,.T.);
#101=ORIENTED_EDGE('',*,*,#353,.T.);
#102=ORIENTED_EDGE('',*,*,#354,.T.);
#103=ORIENTED_EDGE('',*,*,#355,.T.);
#104=ORIENTED_EDGE('',*,*,#356,.T.);
#105=ORIENTED_EDGE('',*,*,#357,.T.);
#106=ORIENTED_EDGE('',*,*,#358,.T.);
#107=ORIENTED_EDGE('',*,*,#359,.T.);
#108=ORIENTED_EDGE('',*,*,#360,.T.);
#109=ORIENTED_EDGE('',*,*,#361,.T.);
#110=ORIENTED_EDGE('',*,*,#362,.T.);
#111=ORIENTED_EDGE('',*,*,#363,.T.);
#112=ORIENTED_EDGE('',*,*,#364,.T.);
#113=ORIENTED_EDGE('',*,*,#365,.T.);
#114=ORIENTED_EDGE('',*,*,#366,.T.);
#115=ORIENTED_EDGE('',*,*,#367,.T.);
#116=ORIENTED_EDGE('',*,*,#368,.T.);
#117=ORIENTED_EDGE('',*,*,#369,.T.);
#118=ORIENTED_EDGE('',*,*,#370,.T.);
#119=ORIENTED_EDGE('',*,*,#371,.T.);
#120=ORIENTED_EDGE('',*,*,#372,.T.);
#121=ORIENTED_EDGE('',*,*,#373,.T.);
#122=ORIENTED_EDGE('',*,*,#374,.T.);
#123=ORIENTED_EDGE('',*,*,#375,.F.);
#124=ORIENTED_EDGE('',*,*,#376,.F.);
#125=ORIENTED_EDGE('',*,*,#377,.T.);
#126=ORIENTED_EDGE('',*,*,#378,.T.);
#127=ORIENTED_EDGE('',*,*,#379,.F.);
#128=ORIENTED_EDGE('',*,*,#380,.F.);
#129=ORIENTED_EDGE('',*,*,#375,.T.);
#130=ORIENTED_EDGE('',*,*,#381,.T.);
#131=ORIENTED_EDGE('',*,*,#382,.F.);
#132=ORIENTED_EDGE('',*,*,#383,.F.);
#133=ORIENTED_EDGE('',*,*,#379,.T.);
#134=ORIENTED_EDGE('',*,*,#384,.T.);
#135=ORIENTED_EDGE('',*,*,#377,.F.);
#136=ORIENTED_EDGE('',*,*,#385,.F.);
#137=ORIENTED_EDGE('',*,*,#382,.T.);
#138=ORIENTED_EDGE('',*,*,#386,.F.);
#139=ORIENTED_EDGE('',*,*,#387,.F.);
#140=ORIENTED_EDGE('',*,*,#388,.F.);
#141=ORIENTED_EDGE('',*,*,#389,.F.);
#142=ORIENTED_EDGE('',*,*,#376,.T.);
#143=ORIENTED_EDGE('',*,*,#380,.T.);
#144=ORIENTED_EDGE('',*,*,#383,.T.);
#145=ORIENTED_EDGE('',*,*,#385,.T.);
#146=ORIENTED_EDGE('',*,*,#374,.F.);
#147=ORIENTED_EDGE('',*,*,#384,.F.);
#148=ORIENTED_EDGE('',*,*,#381,.F.);
#149=ORIENTED_EDGE('',*,*,#378,.F.);
#150=ORIENTED_EDGE('',*,*,#388,.T.);
#151=ORIENTED_EDGE('',*,*,#390,.F.);
#152=ORIENTED_EDGE('',*,*,#339,.F.);
#153=ORIENTED_EDGE('',*,*,#391,.T.);
#154=ORIENTED_EDGE('',*,*,#389,.T.);
#155=ORIENTED_EDGE('',*,*,#391,.F.);
#156=ORIENTED_EDGE('',*,*,#338,.F.);
#157=ORIENTED_EDGE('',*,*,#392,.T.);
#158=ORIENTED_EDGE('',*,*,#386,.T.);
#159=ORIENTED_EDGE('',*,*,#392,.F.);
#160=ORIENTED_EDGE('',*,*,#337,.F.);
#161=ORIENTED_EDGE('',*,*,#393,.T.);
#162=ORIENTED_EDGE('',*,*,#387,.T.);
#163=ORIENTED_EDGE('',*,*,#393,.F.);
#164=ORIENTED_EDGE('',*,*,#336,.F.);
#165=ORIENTED_EDGE('',*,*,#390,.T.);
#166=ORIENTED_EDGE('',*,*,#341,.F.);
#167=ORIENTED_EDGE('',*,*,#394,.F.);
#168=ORIENTED_EDGE('',*,*,#395,.T.);
#169=ORIENTED_EDGE('',*,*,#396,.T.);
#170=ORIENTED_EDGE('',*,*,#340,.F.);
#171=ORIENTED_EDGE('',*,*,#397,.F.);
#172=ORIENTED_EDGE('',*,*,#398,.T.);
#173=ORIENTED_EDGE('',*,*,#394,.T.);
#174=ORIENTED_EDGE('',*,*,#351,.F.);
#175=ORIENTED_EDGE('',*,*,#399,.F.);
#176=ORIENTED_EDGE('',*,*,#400,.T.);
#177=ORIENTED_EDGE('',*,*,#397,.T.);
#178=ORIENTED_EDGE('',*,*,#350,.F.);
#179=ORIENTED_EDGE('',*,*,#401,.F.);
#180=ORIENTED_EDGE('',*,*,#402,.T.);
#181=ORIENTED_EDGE('',*,*,#399,.T.);
#182=ORIENTED_EDGE('',*,*,#349,.F.);
#183=ORIENTED_EDGE('',*,*,#403,.F.);
#184=ORIENTED_EDGE('',*,*,#404,.T.);
#185=ORIENTED_EDGE('',*,*,#401,.T.);
#186=ORIENTED_EDGE('',*,*,#348,.F.);
#187=ORIENTED_EDGE('',*,*,#405,.F.);
#188=ORIENTED_EDGE('',*,*,#406,.T.);
#189=ORIENTED_EDGE('',*,*,#403,.T.);
#190=ORIENTED_EDGE('',*,*,#347,.F.);
#191=ORIENTED_EDGE('',*,*,#407,.F.);
#192=ORIENTED_EDGE('',*,*,#408,.T.);
#193=ORIENTED_EDGE('',*,*,#405,.T.);
#194=ORIENTED_EDGE('',*,*,#346,.F.);
#195=ORIENTED_EDGE('',*,*,#409,.F.);
#196=ORIENTED_EDGE('',*,*,#410,.T.);
#197=ORIENTED_EDGE('',*,*,#407,.T.);
#198=ORIENTED_EDGE('',*,*,#345,.F.);
#199=ORIENTED_EDGE('',*,*,#411,.F.);
#200=ORIENTED_EDGE('',*,*,#412,.T.);
#201=ORIENTED_EDGE('',*,*,#409,.T.);
#202=ORIENTED_EDGE('',*,*,#344,.F.);
#203=ORIENTED_EDGE('',*,*,#413,.F.);
#204=ORIENTED_EDGE('',*,*,#414,.T.);
#205=ORIENTED_EDGE('',*,*,#411,.T.);
#206=ORIENTED_EDGE('',*,*,#343,.F.);
#207=ORIENTED_EDGE('',*,*,#415,.F.);
#208=ORIENTED_EDGE('',*,*,#416,.T.);
#209=ORIENTED_EDGE('',*,*,#413,.T.);
#210=ORIENTED_EDGE('',*,*,#342,.F.);
#211=ORIENTED_EDGE('',*,*,#396,.F.);
#212=ORIENTED_EDGE('',*,*,#417,.T.);
#213=ORIENTED_EDGE('',*,*,#415,.T.);
#214=ORIENTED_EDGE('',*,*,#395,.F.);
#215=ORIENTED_EDGE('',*,*,#398,.F.);
#216=ORIENTED_EDGE('',*,*,#400,.F.);
#217=ORIENTED_EDGE('',*,*,#402,.F.);
#218=ORIENTED_EDGE('',*,*,#404,.F.);
#219=ORIENTED_EDGE('',*,*,#406,.F.);
#220=ORIENTED_EDGE('',*,*,#408,.F.);
#221=ORIENTED_EDGE('',*,*,#410,.F.);
#222=ORIENTED_EDGE('',*,*,#412,.F.);
#223=ORIENTED_EDGE('',*,*,#414,.F.);
#224=ORIENTED_EDGE('',*,*,#416,.F.);
#225=ORIENTED_EDGE('',*,*,#417,.F.);
#226=ORIENTED_EDGE('',*,*,#353,.F.);
#227=ORIENTED_EDGE('',*,*,#418,.F.);
#228=ORIENTED_EDGE('',*,*,#419,.T.);
#229=ORIENTED_EDGE('',*,*,#420,.T.);
#230=ORIENTED_EDGE('',*,*,#352,.F.);
#231=ORIENTED_EDGE('',*,*,#421,.F.);
#232=ORIENTED_EDGE('',*,*,#422,.T.);
#233=ORIENTED_EDGE('',*,*,#418,.T.);
#234=ORIENTED_EDGE('',*,*,#373,.F.);
#235=ORIENTED_EDGE('',*,*,#423,.F.);
#236=ORIENTED_EDGE('',*,*,#424,.T.);
#237=ORIENTED_EDGE('',*,*,#421,.T.);
#238=ORIENTED_EDGE('',*,*,#372,.F.);
#239=ORIENTED_EDGE('',*,*,#425,.F.);
#240=ORIENTED_EDGE('',*,*,#426,.T.);
#241=ORIENTED_EDGE('',*,*,#423,.T.);
#242=ORIENTED_EDGE('',*,*,#371,.F.);
#243=ORIENTED_EDGE('',*,*,#427,.F.);
#244=ORIENTED_EDGE('',*,*,#428,.T.);
#245=ORIENTED_EDGE('',*,*,#425,.T.);
#246=ORIENTED_EDGE('',*,*,#370,.F.);
#247=ORIENTED_EDGE('',*,*,#429,.F.);
#248=ORIENTED_EDGE('',*,*,#430,.T.);
#249=ORIENTED_EDGE('',*,*,#427,.T.);
#250=ORIENTED_EDGE('',*,*,#369,.F.);
#251=ORIENTED_EDGE('',*,*,#431,.F.);
#252=ORIENTED_EDGE('',*,*,#432,.T.);
#253=ORIENTED_EDGE('',*,*,#429,.T.);
#254=ORIENTED_EDGE('',*,*,#368,.F.);
#255=ORIENTED_EDGE('',*,*,#433,.F.);
#256=ORIENTED_EDGE('',*,*,#434,.T.);
#257=ORIENTED_EDGE('',*,*,#431,.T.);
#258=ORIENTED_EDGE('',*,*,#367,.F.);
#259=ORIENTED_EDGE('',*,*,#435,.F.);
#260=ORIENTED_EDGE('',*,*,#436,.T.);
#261=ORIENTED_EDGE('',*,*,#433,.T.);
#262=ORIENTED_EDGE('',*,*,#366,.F.);
#263=ORIENTED_EDGE('',*,*,#437,.F.);
#264=ORIENTED_EDGE('',*,*,#438,.T.);
#265=ORIENTED_EDGE('',*,*,#435,.T.);
#266=ORIENTED_EDGE('',*,*,#365,.F.);
#267=ORIENTED_EDGE('',*,*,#439,.F.);
#268=ORIENTED_EDGE('',*,*,#440,.T.);
#269=ORIENTED_EDGE('',*,*,#437,.T.);
#270=ORIENTED_EDGE('',*,*,#364,.F.);
#271=ORIENTED_EDGE('',*,*,#441,.F.);
#272=ORIENTED_EDGE('',*,*,#442,.T.);
#273=ORIENTED_EDGE('',*,*,#439,.T.);
#274=ORIENTED_EDGE('',*,*,#363,.F.);
#275=ORIENTED_EDGE('',*,*,#443,.F.);
#276=ORIENTED_EDGE('',*,*,#444,.T.);
#277=ORIENTED_EDGE('',*,*,#441,.T.);
#278=ORIENTED_EDGE('',*,*,#362,.F.);
#279=ORIENTED_EDGE('',*,*,#445,.F.);
#280=ORIENTED_EDGE('',*,*,#446,.T.);
#281=ORIENTED_EDGE('',*,*,#443,.T.);
#282=ORIENTED_EDGE('',*,*,#361,.F.);
#283=ORIENTED_EDGE('',*,*,#447,.F.);
#284=ORIENTED_EDGE('',*,*,#448,.T.);
#285=ORIENTED_EDGE('',*,*,#445,.T.);
#286=ORIENTED_EDGE('',*,*,#360,.F.);
#287=ORIENTED_EDGE('',*,*,#449,.F.);
#288=ORIENTED_EDGE('',*,*,#450,.T.);
#289=ORIENTED_EDGE('',*,*,#447,.T.);
#290=ORIENTED_EDGE('',*,*,#359,.F.);
#291=ORIENTED_EDGE('',*,*,#451,.F.);
#292=ORIENTED_EDGE('',*,*,#452,.T.);
#293=ORIENTED_EDGE('',*,*,#449,.T.);
#294=ORIENTED_EDGE('',*,*,#358,.F.);
#295=ORIENTED_EDGE('',*,*,#453,.F.);
#296=ORIENTED_EDGE('',*,*,#454,.T.);
#297=ORIENTED_EDGE('',*,*,#451,.T.);
#298=ORIENTED_EDGE('',*,*,#357,.F.);
#299=ORIENTED_EDGE('',*,*,#455,.F.);
#300=ORIENTED_EDGE('',*,*,#456,.T.);
#301=ORIENTED_EDGE('',*,*,#453,.T.);
#302=ORIENTED_EDGE('',*,*,#356,.F.);
#303=ORIENTED_EDGE('',*,*,#457,.F.);
#304=ORIENTED_EDGE('',*,*,#458,.T.);
#305=ORIENTED_EDGE('',*,*,#455,.T.);
#306=ORIENTED_EDGE('',*,*,#355,.F.);
#307=ORIENTED_EDGE('',*,*,#459,.F.);
#308=ORIENTED_EDGE('',*,*,#460,.T.);
#309=ORIENTED_EDGE('',*,*,#457,.T.);
#310=ORIENTED_EDGE('',*,*,#354,.F.);
#311=ORIENTED_EDGE('',*,*,#420,.F.);
#312=ORIENTED_EDGE('',*,*,#461,.T.);
#313=ORIENTED_EDGE('',*,*,#459,.T.);
#314=ORIENTED_EDGE('',*,*,#419,.F.);
#315=ORIENTED_EDGE('',*,*,#422,.F.);
#316=ORIENTED_EDGE('',*,*,#424,.F.);
#317=ORIENTED_EDGE('',*,*,#426,.F.);
#318=ORIENTED_EDGE('',*,*,#428,.F.);
#319=ORIENTED_EDGE('',*,*,#430,.F.);
#320=ORIENTED_EDGE('',*,*,#432,.F.);
#321=ORIENTED_EDGE('',*,*,#434,.F.);
#322=ORIENTED_EDGE('',*,*,#436,.F.);
#323=ORIENTED_EDGE('',*,*,#438,.F.);
#324=ORIENTED_EDGE('',*,*,#440,.F.);
#325=ORIENTED_EDGE('',*,*,#442,.F.);
#326=ORIENTED_EDGE('',*,*,#444,.F.);
#327=ORIENTED_EDGE('',*,*,#446,.F.);
#328=ORIENTED_EDGE('',*,*,#448,.F.);
#329=ORIENTED_EDGE('',*,*,#450,.F.);
#330=ORIENTED_EDGE('',*,*,#452,.F.);
#331=ORIENTED_EDGE('',*,*,#454,.F.);
#332=ORIENTED_EDGE('',*,*,#456,.F.);
#333=ORIENTED_EDGE('',*,*,#458,.F.);
#334=ORIENTED_EDGE('',*,*,#460,.F.);
#335=ORIENTED_EDGE('',*,*,#461,.F.);
#336=EDGE_CURVE('',#462,#463,#546,.T.);
#337=EDGE_CURVE('',#463,#464,#547,.T.);
#338=EDGE_CURVE('',#464,#465,#58,.T.);
#339=EDGE_CURVE('',#465,#462,#548,.T.);
#340=EDGE_CURVE('',#466,#467,#549,.T.);
#341=EDGE_CURVE('',#467,#468,#550,.T.);
#342=EDGE_CURVE('',#468,#469,#551,.T.);
#343=EDGE_CURVE('',#469,#470,#552,.T.);
#344=EDGE_CURVE('',#470,#471,#553,.T.);
#345=EDGE_CURVE('',#471,#472,#554,.T.);
#346=EDGE_CURVE('',#472,#473,#59,.T.);
#347=EDGE_CURVE('',#473,#474,#60,.T.);
#348=EDGE_CURVE('',#474,#475,#555,.T.);
#349=EDGE_CURVE('',#475,#476,#556,.T.);
#350=EDGE_CURVE('',#476,#477,#557,.T.);
#351=EDGE_CURVE('',#477,#466,#558,.T.);
#352=EDGE_CURVE('',#478,#479,#36,.T.);
#353=EDGE_CURVE('',#479,#480,#61,.F.);
#354=EDGE_CURVE('',#480,#481,#37,.T.);
#355=EDGE_CURVE('',#481,#482,#38,.T.);
#356=EDGE_CURVE('',#482,#483,#39,.T.);
#357=EDGE_CURVE('',#483,#484,#40,.T.);
#358=EDGE_CURVE('',#484,#485,#62,.F.);
#359=EDGE_CURVE('',#485,#486,#41,.T.);
#360=EDGE_CURVE('',#486,#487,#63,.F.);
#361=EDGE_CURVE('',#487,#488,#559,.T.);
#362=EDGE_CURVE('',#488,#489,#64,.T.);
#363=EDGE_CURVE('',#489,#490,#65,.T.);
#364=EDGE_CURVE('',#490,#491,#66,.T.);
#365=EDGE_CURVE('',#491,#492,#42,.T.);
#366=EDGE_CURVE('',#492,#493,#43,.T.);
#367=EDGE_CURVE('',#493,#494,#44,.T.);
#368=EDGE_CURVE('',#494,#495,#45,.T.);
#369=EDGE_CURVE('',#495,#496,#46,.T.);
#370=EDGE_CURVE('',#496,#497,#67,.T.);
#371=EDGE_CURVE('',#497,#498,#68,.T.);
#372=EDGE_CURVE('',#498,#499,#560,.T.);
#373=EDGE_CURVE('',#499,#478,#69,.F.);
#374=EDGE_CURVE('',#500,#501,#561,.T.);
#375=EDGE_CURVE('',#502,#501,#562,.T.);
#376=EDGE_CURVE('',#503,#502,#563,.T.);
#377=EDGE_CURVE('',#503,#500,#564,.T.);
#378=EDGE_CURVE('',#501,#504,#565,.T.);
#379=EDGE_CURVE('',#505,#504,#566,.T.);
#380=EDGE_CURVE('',#502,#505,#567,.T.);
#381=EDGE_CURVE('',#504,#506,#70,.T.);
#382=EDGE_CURVE('',#507,#506,#568,.T.);
#383=EDGE_CURVE('',#505,#507,#71,.T.);
#384=EDGE_CURVE('',#506,#500,#569,.T.);
#385=EDGE_CURVE('',#507,#503,#570,.T.);
#386=EDGE_CURVE('',#508,#509,#571,.T.);
#387=EDGE_CURVE('',#510,#508,#572,.T.);
#388=EDGE_CURVE('',#511,#510,#573,.T.);
#389=EDGE_CURVE('',#509,#511,#72,.T.);
#390=EDGE_CURVE('',#462,#510,#574,.T.);
#391=EDGE_CURVE('',#465,#511,#575,.T.);
#392=EDGE_CURVE('',#464,#509,#576,.T.);
#393=EDGE_CURVE('',#463,#508,#577,.T.);
#394=EDGE_CURVE('',#512,#467,#578,.T.);
#395=EDGE_CURVE('',#512,#513,#579,.T.);
#396=EDGE_CURVE('',#513,#468,#580,.T.);
#397=EDGE_CURVE('',#514,#466,#581,.T.);
#398=EDGE_CURVE('',#514,#512,#582,.T.);
#399=EDGE_CURVE('',#515,#477,#583,.T.);
#400=EDGE_CURVE('',#515,#514,#584,.T.);
#401=EDGE_CURVE('',#516,#476,#585,.T.);
#402=EDGE_CURVE('',#516,#515,#586,.T.);
#403=EDGE_CURVE('',#517,#475,#587,.T.);
#404=EDGE_CURVE('',#517,#516,#588,.T.);
#405=EDGE_CURVE('',#518,#474,#589,.T.);
#406=EDGE_CURVE('',#518,#517,#590,.T.);
#407=EDGE_CURVE('',#519,#473,#591,.T.);
#408=EDGE_CURVE('',#519,#518,#73,.T.);
#409=EDGE_CURVE('',#520,#472,#592,.T.);
#410=EDGE_CURVE('',#520,#519,#74,.T.);
#411=EDGE_CURVE('',#521,#471,#593,.T.);
#412=EDGE_CURVE('',#521,#520,#594,.T.);
#413=EDGE_CURVE('',#522,#470,#595,.T.);
#414=EDGE_CURVE('',#522,#521,#596,.T.);
#415=EDGE_CURVE('',#523,#469,#597,.T.);
#416=EDGE_CURVE('',#523,#522,#598,.T.);
#417=EDGE_CURVE('',#513,#523,#599,.T.);
#418=EDGE_CURVE('',#524,#479,#600,.T.);
#419=EDGE_CURVE('',#524,#525,#75,.F.);
#420=EDGE_CURVE('',#525,#480,#601,.T.);
#421=EDGE_CURVE('',#526,#478,#602,.T.);
#422=EDGE_CURVE('',#526,#524,#47,.T.);
#423=EDGE_CURVE('',#527,#499,#603,.T.);
#424=EDGE_CURVE('',#527,#526,#76,.F.);
#425=EDGE_CURVE('',#528,#498,#604,.T.);
#426=EDGE_CURVE('',#528,#527,#605,.T.);
#427=EDGE_CURVE('',#529,#497,#606,.T.);
#428=EDGE_CURVE('',#529,#528,#77,.T.);
#429=EDGE_CURVE('',#530,#496,#607,.T.);
#430=EDGE_CURVE('',#530,#529,#78,.T.);
#431=EDGE_CURVE('',#531,#495,#608,.T.);
#432=EDGE_CURVE('',#531,#530,#48,.T.);
#433=EDGE_CURVE('',#532,#494,#609,.T.);
#434=EDGE_CURVE('',#532,#531,#49,.T.);
#435=EDGE_CURVE('',#533,#493,#610,.T.);
#436=EDGE_CURVE('',#533,#532,#50,.T.);
#437=EDGE_CURVE('',#534,#492,#611,.T.);
#438=EDGE_CURVE('',#534,#533,#51,.T.);
#439=EDGE_CURVE('',#535,#491,#612,.T.);
#440=EDGE_CURVE('',#535,#534,#52,.T.);
#441=EDGE_CURVE('',#536,#490,#613,.T.);
#442=EDGE_CURVE('',#536,#535,#79,.T.);
#443=EDGE_CURVE('',#537,#489,#614,.T.);
#444=EDGE_CURVE('',#537,#536,#80,.T.);
#445=EDGE_CURVE('',#538,#488,#615,.T.);
#446=EDGE_CURVE('',#538,#537,#81,.T.);
#447=EDGE_CURVE('',#539,#487,#616,.T.);
#448=EDGE_CURVE('',#539,#538,#617,.T.);
#449=EDGE_CURVE('',#540,#486,#618,.T.);
#450=EDGE_CURVE('',#540,#539,#82,.F.);
#451=EDGE_CURVE('',#541,#485,#619,.T.);
#452=EDGE_CURVE('',#541,#540,#53,.T.);
#453=EDGE_CURVE('',#542,#484,#620,.T.);
#454=EDGE_CURVE('',#542,#541,#83,.F.);
#455=EDGE_CURVE('',#543,#483,#621,.T.);
#456=EDGE_CURVE('',#543,#542,#54,.T.);
#457=EDGE_CURVE('',#544,#482,#622,.T.);
#458=EDGE_CURVE('',#544,#543,#55,.T.);
#459=EDGE_CURVE('',#545,#481,#623,.T.);
#460=EDGE_CURVE('',#545,#544,#56,.T.);
#461=EDGE_CURVE('',#525,#545,#57,.T.);
#462=VERTEX_POINT('',#1154);
#463=VERTEX_POINT('',#1155);
#464=VERTEX_POINT('',#1157);
#465=VERTEX_POINT('',#1159);
#466=VERTEX_POINT('',#1162);
#467=VERTEX_POINT('',#1163);
#468=VERTEX_POINT('',#1165);
#469=VERTEX_POINT('',#1167);
#470=VERTEX_POINT('',#1169);
#471=VERTEX_POINT('',#1171);
#472=VERTEX_POINT('',#1173);
#473=VERTEX_POINT('',#1175);
#474=VERTEX_POINT('',#1177);
#475=VERTEX_POINT('',#1179);
#476=VERTEX_POINT('',#1181);
#477=VERTEX_POINT('',#1183);
#478=VERTEX_POINT('',#1188);
#479=VERTEX_POINT('',#1189);
#480=VERTEX_POINT('',#1191);
#481=VERTEX_POINT('',#1195);
#482=VERTEX_POINT('',#1199);
#483=VERTEX_POINT('',#1203);
#484=VERTEX_POINT('',#1207);
#485=VERTEX_POINT('',#1209);
#486=VERTEX_POINT('',#1213);
#487=VERTEX_POINT('',#1215);
#488=VERTEX_POINT('',#1217);
#489=VERTEX_POINT('',#1219);
#490=VERTEX_POINT('',#1221);
#491=VERTEX_POINT('',#1223);
#492=VERTEX_POINT('',#1227);
#493=VERTEX_POINT('',#1231);
#494=VERTEX_POINT('',#1235);
#495=VERTEX_POINT('',#1239);
#496=VERTEX_POINT('',#1243);
#497=VERTEX_POINT('',#1245);
#498=VERTEX_POINT('',#1247);
#499=VERTEX_POINT('',#1249);
#500=VERTEX_POINT('',#1253);
#501=VERTEX_POINT('',#1254);
#502=VERTEX_POINT('',#1256);
#503=VERTEX_POINT('',#1258);
#504=VERTEX_POINT('',#1262);
#505=VERTEX_POINT('',#1264);
#506=VERTEX_POINT('',#1268);
#507=VERTEX_POINT('',#1270);
#508=VERTEX_POINT('',#1277);
#509=VERTEX_POINT('',#1278);
#510=VERTEX_POINT('',#1280);
#511=VERTEX_POINT('',#1282);
#512=VERTEX_POINT('',#1295);
#513=VERTEX_POINT('',#1297);
#514=VERTEX_POINT('',#1301);
#515=VERTEX_POINT('',#1305);
#516=VERTEX_POINT('',#1309);
#517=VERTEX_POINT('',#1313);
#518=VERTEX_POINT('',#1317);
#519=VERTEX_POINT('',#1321);
#520=VERTEX_POINT('',#1325);
#521=VERTEX_POINT('',#1329);
#522=VERTEX_POINT('',#1333);
#523=VERTEX_POINT('',#1337);
#524=VERTEX_POINT('',#1344);
#525=VERTEX_POINT('',#1346);
#526=VERTEX_POINT('',#1357);
#527=VERTEX_POINT('',#1363);
#528=VERTEX_POINT('',#1367);
#529=VERTEX_POINT('',#1371);
#530=VERTEX_POINT('',#1375);
#531=VERTEX_POINT('',#1386);
#532=VERTEX_POINT('',#1399);
#533=VERTEX_POINT('',#1412);
#534=VERTEX_POINT('',#1425);
#535=VERTEX_POINT('',#1438);
#536=VERTEX_POINT('',#1444);
#537=VERTEX_POINT('',#1448);
#538=VERTEX_POINT('',#1452);
#539=VERTEX_POINT('',#1456);
#540=VERTEX_POINT('',#1460);
#541=VERTEX_POINT('',#1471);
#542=VERTEX_POINT('',#1477);
#543=VERTEX_POINT('',#1488);
#544=VERTEX_POINT('',#1501);
#545=VERTEX_POINT('',#1514);
#546=LINE('',#1153,#624);
#547=LINE('',#1156,#625);
#548=LINE('',#1160,#626);
#549=LINE('',#1161,#627);
#550=LINE('',#1164,#628);
#551=LINE('',#1166,#629);
#552=LINE('',#1168,#630);
#553=LINE('',#1170,#631);
#554=LINE('',#1172,#632);
#555=LINE('',#1178,#633);
#556=LINE('',#1180,#634);
#557=LINE('',#1182,#635);
#558=LINE('',#1184,#636);
#559=LINE('',#1216,#637);
#560=LINE('',#1248,#638);
#561=LINE('',#1252,#639);
#562=LINE('',#1255,#640);
#563=LINE('',#1257,#641);
#564=LINE('',#1259,#642);
#565=LINE('',#1261,#643);
#566=LINE('',#1263,#644);
#567=LINE('',#1265,#645);
#568=LINE('',#1269,#646);
#569=LINE('',#1273,#647);
#570=LINE('',#1274,#648);
#571=LINE('',#1276,#649);
#572=LINE('',#1279,#650);
#573=LINE('',#1281,#651);
#574=LINE('',#1286,#652);
#575=LINE('',#1287,#653);
#576=LINE('',#1289,#654);
#577=LINE('',#1291,#655);
#578=LINE('',#1294,#656);
#579=LINE('',#1296,#657);
#580=LINE('',#1298,#658);
#581=LINE('',#1300,#659);
#582=LINE('',#1302,#660);
#583=LINE('',#1304,#661);
#584=LINE('',#1306,#662);
#585=LINE('',#1308,#663);
#586=LINE('',#1310,#664);
#587=LINE('',#1312,#665);
#588=LINE('',#1314,#666);
#589=LINE('',#1316,#667);
#590=LINE('',#1318,#668);
#591=LINE('',#1320,#669);
#592=LINE('',#1324,#670);
#593=LINE('',#1328,#671);
#594=LINE('',#1330,#672);
#595=LINE('',#1332,#673);
#596=LINE('',#1334,#674);
#597=LINE('',#1336,#675);
#598=LINE('',#1338,#676);
#599=LINE('',#1340,#677);
#600=LINE('',#1343,#678);
#601=LINE('',#1347,#679);
#602=LINE('',#1356,#680);
#603=LINE('',#1362,#681);
#604=LINE('',#1366,#682);
#605=LINE('',#1368,#683);
#606=LINE('',#1370,#684);
#607=LINE('',#1374,#685);
#608=LINE('',#1385,#686);
#609=LINE('',#1398,#687);
#610=LINE('',#1411,#688);
#611=LINE('',#1424,#689);
#612=LINE('',#1437,#690);
#613=LINE('',#1443,#691);
#614=LINE('',#1447,#692);
#615=LINE('',#1451,#693);
#616=LINE('',#1455,#694);
#617=LINE('',#1457,#695);
#618=LINE('',#1459,#696);
#619=LINE('',#1470,#697);
#620=LINE('',#1476,#698);
#621=LINE('',#1487,#699);
#622=LINE('',#1500,#700);
#623=LINE('',#1513,#701);
#624=VECTOR('',#951,1.);
#625=VECTOR('',#952,1.);
#626=VECTOR('',#955,1.);
#627=VECTOR('',#956,1.);
#628=VECTOR('',#957,1.);
#629=VECTOR('',#958,1.);
#630=VECTOR('',#959,1.);
#631=VECTOR('',#960,1.);
#632=VECTOR('',#961,1.);
#633=VECTOR('',#966,1.);
#634=VECTOR('',#967,1.);
#635=VECTOR('',#968,1.);
#636=VECTOR('',#969,1.);
#637=VECTOR('',#976,1.);
#638=VECTOR('',#987,1.);
#639=VECTOR('',#992,1.);
#640=VECTOR('',#993,1.);
#641=VECTOR('',#994,1.);
#642=VECTOR('',#995,1.);
#643=VECTOR('',#998,1.);
#644=VECTOR('',#999,1.);
#645=VECTOR('',#1000,1.);
#646=VECTOR('',#1005,1.);
#647=VECTOR('',#1010,1.);
#648=VECTOR('',#1011,1.);
#649=VECTOR('',#1014,1.);
#650=VECTOR('',#1015,1.);
#651=VECTOR('',#1016,1.);
#652=VECTOR('',#1023,1.);
#653=VECTOR('',#1024,1.);
#654=VECTOR('',#1027,1.);
#655=VECTOR('',#1030,1.);
#656=VECTOR('',#1035,1.);
#657=VECTOR('',#1036,1.);
#658=VECTOR('',#1037,1.);
#659=VECTOR('',#1040,1.);
#660=VECTOR('',#1041,1.);
#661=VECTOR('',#1044,1.);
#662=VECTOR('',#1045,1.);
#663=VECTOR('',#1048,1.);
#664=VECTOR('',#1049,1.);
#665=VECTOR('',#1052,1.);
#666=VECTOR('',#1053,1.);
#667=VECTOR('',#1056,1.);
#668=VECTOR('',#1057,1.);
#669=VECTOR('',#1060,1.);
#670=VECTOR('',#1065,1.);
#671=VECTOR('',#1070,1.);
#672=VECTOR('',#1071,1.);
#673=VECTOR('',#1074,1.);
#674=VECTOR('',#1075,1.);
#675=VECTOR('',#1078,1.);
#676=VECTOR('',#1079,1.);
#677=VECTOR('',#1082,1.);
#678=VECTOR('',#1087,1.);
#679=VECTOR('',#1090,1.);
#680=VECTOR('',#1091,1.);
#681=VECTOR('',#1094,1.);
#682=VECTOR('',#1099,1.);
#683=VECTOR('',#1100,1.);
#684=VECTOR('',#1103,1.);
#685=VECTOR('',#1108,1.);
#686=VECTOR('',#1111,1.);
#687=VECTOR('',#1112,1.);
#688=VECTOR('',#1113,1.);
#689=VECTOR('',#1114,1.);
#690=VECTOR('',#1115,1.);
#691=VECTOR('',#1118,1.);
#692=VECTOR('',#1123,1.);
#693=VECTOR('',#1128,1.);
#694=VECTOR('',#1133,1.);
#695=VECTOR('',#1134,1.);
#696=VECTOR('',#1137,1.);
#697=VECTOR('',#1140,1.);
#698=VECTOR('',#1143,1.);
#699=VECTOR('',#1146,1.);
#700=VECTOR('',#1147,1.);
#701=VECTOR('',#1148,1.);
#702=EDGE_LOOP('',(#84,#85,#86,#87));
#703=EDGE_LOOP('',(#88,#89,#90,#91,#92,#93,#94,#95,#96,#97,#98,#99));
#704=EDGE_LOOP('',(#100,#101,#102,#103,#104,#105,#106,#107,#108,#109,#110,
#111,#112,#113,#114,#115,#116,#117,#118,#119,#120,#121));
#705=EDGE_LOOP('',(#122,#123,#124,#125));
#706=EDGE_LOOP('',(#126,#127,#128,#129));
#707=EDGE_LOOP('',(#130,#131,#132,#133));
#708=EDGE_LOOP('',(#134,#135,#136,#137));
#709=EDGE_LOOP('',(#138,#139,#140,#141));
#710=EDGE_LOOP('',(#142,#143,#144,#145));
#711=EDGE_LOOP('',(#146,#147,#148,#149));
#712=EDGE_LOOP('',(#150,#151,#152,#153));
#713=EDGE_LOOP('',(#154,#155,#156,#157));
#714=EDGE_LOOP('',(#158,#159,#160,#161));
#715=EDGE_LOOP('',(#162,#163,#164,#165));
#716=EDGE_LOOP('',(#166,#167,#168,#169));
#717=EDGE_LOOP('',(#170,#171,#172,#173));
#718=EDGE_LOOP('',(#174,#175,#176,#177));
#719=EDGE_LOOP('',(#178,#179,#180,#181));
#720=EDGE_LOOP('',(#182,#183,#184,#185));
#721=EDGE_LOOP('',(#186,#187,#188,#189));
#722=EDGE_LOOP('',(#190,#191,#192,#193));
#723=EDGE_LOOP('',(#194,#195,#196,#197));
#724=EDGE_LOOP('',(#198,#199,#200,#201));
#725=EDGE_LOOP('',(#202,#203,#204,#205));
#726=EDGE_LOOP('',(#206,#207,#208,#209));
#727=EDGE_LOOP('',(#210,#211,#212,#213));
#728=EDGE_LOOP('',(#214,#215,#216,#217,#218,#219,#220,#221,#222,#223,#224,
#225));
#729=EDGE_LOOP('',(#226,#227,#228,#229));
#730=EDGE_LOOP('',(#230,#231,#232,#233));
#731=EDGE_LOOP('',(#234,#235,#236,#237));
#732=EDGE_LOOP('',(#238,#239,#240,#241));
#733=EDGE_LOOP('',(#242,#243,#244,#245));
#734=EDGE_LOOP('',(#246,#247,#248,#249));
#735=EDGE_LOOP('',(#250,#251,#252,#253));
#736=EDGE_LOOP('',(#254,#255,#256,#257));
#737=EDGE_LOOP('',(#258,#259,#260,#261));
#738=EDGE_LOOP('',(#262,#263,#264,#265));
#739=EDGE_LOOP('',(#266,#267,#268,#269));
#740=EDGE_LOOP('',(#270,#271,#272,#273));
#741=EDGE_LOOP('',(#274,#275,#276,#277));
#742=EDGE_LOOP('',(#278,#279,#280,#281));
#743=EDGE_LOOP('',(#282,#283,#284,#285));
#744=EDGE_LOOP('',(#286,#287,#288,#289));
#745=EDGE_LOOP('',(#290,#291,#292,#293));
#746=EDGE_LOOP('',(#294,#295,#296,#297));
#747=EDGE_LOOP('',(#298,#299,#300,#301));
#748=EDGE_LOOP('',(#302,#303,#304,#305));
#749=EDGE_LOOP('',(#306,#307,#308,#309));
#750=EDGE_LOOP('',(#310,#311,#312,#313));
#751=EDGE_LOOP('',(#314,#315,#316,#317,#318,#319,#320,#321,#322,#323,#324,
#325,#326,#327,#328,#329,#330,#331,#332,#333,#334,#335));
#752=FACE_BOUND('',#702,.T.);
#753=FACE_BOUND('',#703,.T.);
#754=FACE_BOUND('',#704,.T.);
#755=FACE_BOUND('',#705,.T.);
#756=FACE_BOUND('',#706,.T.);
#757=FACE_BOUND('',#707,.T.);
#758=FACE_BOUND('',#708,.T.);
#759=FACE_BOUND('',#709,.T.);
#760=FACE_BOUND('',#710,.T.);
#761=FACE_BOUND('',#711,.T.);
#762=FACE_BOUND('',#712,.T.);
#763=FACE_BOUND('',#713,.T.);
#764=FACE_BOUND('',#714,.T.);
#765=FACE_BOUND('',#715,.T.);
#766=FACE_BOUND('',#716,.T.);
#767=FACE_BOUND('',#717,.T.);
#768=FACE_BOUND('',#718,.T.);
#769=FACE_BOUND('',#719,.T.);
#770=FACE_BOUND('',#720,.T.);
#771=FACE_BOUND('',#721,.T.);
#772=FACE_BOUND('',#722,.T.);
#773=FACE_BOUND('',#723,.T.);
#774=FACE_BOUND('',#724,.T.);
#775=FACE_BOUND('',#725,.T.);
#776=FACE_BOUND('',#726,.T.);
#777=FACE_BOUND('',#727,.T.);
#778=FACE_BOUND('',#728,.T.);
#779=FACE_BOUND('',#729,.T.);
#780=FACE_BOUND('',#730,.T.);
#781=FACE_BOUND('',#731,.T.);
#782=FACE_BOUND('',#732,.T.);
#783=FACE_BOUND('',#733,.T.);
#784=FACE_BOUND('',#734,.T.);
#785=FACE_BOUND('',#735,.T.);
#786=FACE_BOUND('',#736,.T.);
#787=FACE_BOUND('',#737,.T.);
#788=FACE_BOUND('',#738,.T.);
#789=FACE_BOUND('',#739,.T.);
#790=FACE_BOUND('',#740,.T.);
#791=FACE_BOUND('',#741,.T.);
#792=FACE_BOUND('',#742,.T.);
#793=FACE_BOUND('',#743,.T.);
#794=FACE_BOUND('',#744,.T.);
#795=FACE_BOUND('',#745,.T.);
#796=FACE_BOUND('',#746,.T.);
#797=FACE_BOUND('',#747,.T.);
#798=FACE_BOUND('',#748,.T.);
#799=FACE_BOUND('',#749,.T.);
#800=FACE_BOUND('',#750,.T.);
#801=FACE_BOUND('',#751,.T.);
#802=PLANE('',#885);
#803=PLANE('',#898);
#804=PLANE('',#899);
#805=PLANE('',#903);
#806=PLANE('',#904);
#807=PLANE('',#906);
#808=PLANE('',#907);
#809=PLANE('',#909);
#810=PLANE('',#910);
#811=PLANE('',#911);
#812=PLANE('',#912);
#813=PLANE('',#913);
#814=PLANE('',#914);
#815=PLANE('',#915);
#816=PLANE('',#916);
#817=PLANE('',#921);
#818=PLANE('',#922);
#819=PLANE('',#923);
#820=PLANE('',#924);
#821=PLANE('',#925);
#822=PLANE('',#930);
#823=PLANE('',#941);
#824=PLANE('',#946);
#825=ADVANCED_FACE('',(#752,#753,#754),#802,.T.);
#826=ADVANCED_FACE('',(#755),#803,.F.);
#827=ADVANCED_FACE('',(#756),#804,.F.);
#828=ADVANCED_FACE('',(#757),#23,.F.);
#829=ADVANCED_FACE('',(#758),#805,.F.);
#830=ADVANCED_FACE('',(#759,#760),#806,.T.);
#831=ADVANCED_FACE('',(#761),#807,.F.);
#832=ADVANCED_FACE('',(#762),#808,.F.);
#833=ADVANCED_FACE('',(#763),#24,.F.);
#834=ADVANCED_FACE('',(#764),#809,.F.);
#835=ADVANCED_FACE('',(#765),#810,.F.);
#836=ADVANCED_FACE('',(#766),#811,.T.);
#837=ADVANCED_FACE('',(#767),#812,.T.);
#838=ADVANCED_FACE('',(#768),#813,.T.);
#839=ADVANCED_FACE('',(#769),#814,.T.);
#840=ADVANCED_FACE('',(#770),#815,.T.);
#841=ADVANCED_FACE('',(#771),#816,.T.);
#842=ADVANCED_FACE('',(#772),#25,.T.);
#843=ADVANCED_FACE('',(#773),#26,.T.);
#844=ADVANCED_FACE('',(#774),#817,.T.);
#845=ADVANCED_FACE('',(#775),#818,.T.);
#846=ADVANCED_FACE('',(#776),#819,.T.);
#847=ADVANCED_FACE('',(#777),#820,.T.);
#848=ADVANCED_FACE('',(#778),#821,.T.);
#849=ADVANCED_FACE('',(#779),#27,.F.);
#850=ADVANCED_FACE('',(#780),#12,.T.);
#851=ADVANCED_FACE('',(#781),#28,.F.);
#852=ADVANCED_FACE('',(#782),#822,.T.);
#853=ADVANCED_FACE('',(#783),#29,.T.);
#854=ADVANCED_FACE('',(#784),#30,.T.);
#855=ADVANCED_FACE('',(#785),#13,.T.);
#856=ADVANCED_FACE('',(#786),#14,.T.);
#857=ADVANCED_FACE('',(#787),#15,.T.);
#858=ADVANCED_FACE('',(#788),#16,.T.);
#859=ADVANCED_FACE('',(#789),#17,.T.);
#860=ADVANCED_FACE('',(#790),#31,.T.);
#861=ADVANCED_FACE('',(#791),#32,.T.);
#862=ADVANCED_FACE('',(#792),#33,.T.);
#863=ADVANCED_FACE('',(#793),#823,.T.);
#864=ADVANCED_FACE('',(#794),#34,.F.);
#865=ADVANCED_FACE('',(#795),#18,.T.);
#866=ADVANCED_FACE('',(#796),#35,.F.);
#867=ADVANCED_FACE('',(#797),#19,.T.);
#868=ADVANCED_FACE('',(#798),#20,.T.);
#869=ADVANCED_FACE('',(#799),#21,.T.);
#870=ADVANCED_FACE('',(#800),#22,.T.);
#871=ADVANCED_FACE('',(#801),#824,.T.);
#872=CLOSED_SHELL('',(#825,#826,#827,#828,#829,#830,#831,#832,#833,#834,
#835,#836,#837,#838,#839,#840,#841,#842,#843,#844,#845,#846,#847,#848,#849,
#850,#851,#852,#853,#854,#855,#856,#857,#858,#859,#860,#861,#862,#863,#864,
#865,#866,#867,#868,#869,#870,#871));
#873=STYLED_ITEM('',(#874),#881);
#874=PRESENTATION_STYLE_ASSIGNMENT((#875));
#875=SURFACE_STYLE_USAGE(.BOTH.,#876);
#876=SURFACE_SIDE_STYLE('',(#877));
#877=SURFACE_STYLE_FILL_AREA(#878);
#878=FILL_AREA_STYLE('',(#879));
#879=FILL_AREA_STYLE_COLOUR('',#880);
#880=COLOUR_RGB('',0.764705882352941,0.545098039215686,0.803921568627451);
#881=MANIFOLD_SOLID_BREP('Left Button',#872);
#882=SHAPE_DEFINITION_REPRESENTATION(#1536,#883);
#883=SHAPE_REPRESENTATION('Left Button',(#884),#1531);
#884=AXIS2_PLACEMENT_3D('',#1151,#947,#948);
#885=AXIS2_PLACEMENT_3D('',#1152,#949,#950);
#886=AXIS2_PLACEMENT_3D('',#1158,#953,#954);
#887=AXIS2_PLACEMENT_3D('',#1174,#962,#963);
#888=AXIS2_PLACEMENT_3D('',#1176,#964,#965);
#889=AXIS2_PLACEMENT_3D('',#1190,#970,#971);
#890=AXIS2_PLACEMENT_3D('',#1208,#972,#973);
#891=AXIS2_PLACEMENT_3D('',#1214,#974,#975);
#892=AXIS2_PLACEMENT_3D('',#1218,#977,#978);
#893=AXIS2_PLACEMENT_3D('',#1220,#979,#980);
#894=AXIS2_PLACEMENT_3D('',#1222,#981,#982);
#895=AXIS2_PLACEMENT_3D('',#1244,#983,#984);
#896=AXIS2_PLACEMENT_3D('',#1246,#985,#986);
#897=AXIS2_PLACEMENT_3D('',#1250,#988,#989);
#898=AXIS2_PLACEMENT_3D('',#1251,#990,#991);
#899=AXIS2_PLACEMENT_3D('',#1260,#996,#997);
#900=AXIS2_PLACEMENT_3D('',#1266,#1001,#1002);
#901=AXIS2_PLACEMENT_3D('',#1267,#1003,#1004);
#902=AXIS2_PLACEMENT_3D('',#1271,#1006,#1007);
#903=AXIS2_PLACEMENT_3D('',#1272,#1008,#1009);
#904=AXIS2_PLACEMENT_3D('',#1275,#1012,#1013);
#905=AXIS2_PLACEMENT_3D('',#1283,#1017,#1018);
#906=AXIS2_PLACEMENT_3D('',#1284,#1019,#1020);
#907=AXIS2_PLACEMENT_3D('',#1285,#1021,#1022);
#908=AXIS2_PLACEMENT_3D('',#1288,#1025,#1026);
#909=AXIS2_PLACEMENT_3D('',#1290,#1028,#1029);
#910=AXIS2_PLACEMENT_3D('',#1292,#1031,#1032);
#911=AXIS2_PLACEMENT_3D('',#1293,#1033,#1034);
#912=AXIS2_PLACEMENT_3D('',#1299,#1038,#1039);
#913=AXIS2_PLACEMENT_3D('',#1303,#1042,#1043);
#914=AXIS2_PLACEMENT_3D('',#1307,#1046,#1047);
#915=AXIS2_PLACEMENT_3D('',#1311,#1050,#1051);
#916=AXIS2_PLACEMENT_3D('',#1315,#1054,#1055);
#917=AXIS2_PLACEMENT_3D('',#1319,#1058,#1059);
#918=AXIS2_PLACEMENT_3D('',#1322,#1061,#1062);
#919=AXIS2_PLACEMENT_3D('',#1323,#1063,#1064);
#920=AXIS2_PLACEMENT_3D('',#1326,#1066,#1067);
#921=AXIS2_PLACEMENT_3D('',#1327,#1068,#1069);
#922=AXIS2_PLACEMENT_3D('',#1331,#1072,#1073);
#923=AXIS2_PLACEMENT_3D('',#1335,#1076,#1077);
#924=AXIS2_PLACEMENT_3D('',#1339,#1080,#1081);
#925=AXIS2_PLACEMENT_3D('',#1341,#1083,#1084);
#926=AXIS2_PLACEMENT_3D('',#1342,#1085,#1086);
#927=AXIS2_PLACEMENT_3D('',#1345,#1088,#1089);
#928=AXIS2_PLACEMENT_3D('',#1361,#1092,#1093);
#929=AXIS2_PLACEMENT_3D('',#1364,#1095,#1096);
#930=AXIS2_PLACEMENT_3D('',#1365,#1097,#1098);
#931=AXIS2_PLACEMENT_3D('',#1369,#1101,#1102);
#932=AXIS2_PLACEMENT_3D('',#1372,#1104,#1105);
#933=AXIS2_PLACEMENT_3D('',#1373,#1106,#1107);
#934=AXIS2_PLACEMENT_3D('',#1376,#1109,#1110);
#935=AXIS2_PLACEMENT_3D('',#1442,#1116,#1117);
#936=AXIS2_PLACEMENT_3D('',#1445,#1119,#1120);
#937=AXIS2_PLACEMENT_3D('',#1446,#1121,#1122);
#938=AXIS2_PLACEMENT_3D('',#1449,#1124,#1125);
#939=AXIS2_PLACEMENT_3D('',#1450,#1126,#1127);
#940=AXIS2_PLACEMENT_3D('',#1453,#1129,#1130);
#941=AXIS2_PLACEMENT_3D('',#1454,#1131,#1132);
#942=AXIS2_PLACEMENT_3D('',#1458,#1135,#1136);
#943=AXIS2_PLACEMENT_3D('',#1461,#1138,#1139);
#944=AXIS2_PLACEMENT_3D('',#1475,#1141,#1142);
#945=AXIS2_PLACEMENT_3D('',#1478,#1144,#1145);
#946=AXIS2_PLACEMENT_3D('',#1529,#1149,#1150);
#947=DIRECTION('',(0.,0.,1.));
#948=DIRECTION('',(1.,0.,0.));
#949=DIRECTION('',(0.,0.,1.));
#950=DIRECTION('',(1.,0.,0.));
#951=DIRECTION('',(0.00696247308072786,-0.999975761690552,0.));
#952=DIRECTION('',(1.,0.,0.));
#953=DIRECTION('',(0.,0.,-1.));
#954=DIRECTION('',(1.,0.,0.));
#955=DIRECTION('',(-1.,0.,0.));
#956=DIRECTION('',(-1.,0.,0.));
#957=DIRECTION('',(0.,1.,0.));
#958=DIRECTION('',(1.,0.,0.));
#959=DIRECTION('',(0.,1.,0.));
#960=DIRECTION('',(-1.,0.,0.));
#961=DIRECTION('',(0.,1.,0.));
#962=DIRECTION('',(0.,0.,1.));
#963=DIRECTION('',(1.,0.,0.));
#964=DIRECTION('',(0.,0.,1.));
#965=DIRECTION('',(1.,0.,0.));
#966=DIRECTION('',(1.,0.,0.));
#967=DIRECTION('',(0.,-1.,0.));
#968=DIRECTION('',(1.,0.,0.));
#969=DIRECTION('',(0.,-1.,0.));
#970=DIRECTION('',(0.,0.,1.));
#971=DIRECTION('',(1.,0.,0.));
#972=DIRECTION('',(0.,0.,1.));
#973=DIRECTION('',(1.,0.,0.));
#974=DIRECTION('',(0.,0.,1.));
#975=DIRECTION('',(1.,0.,0.));
#976=DIRECTION('',(-0.639747310226059,-0.768585310202142,0.));
#977=DIRECTION('',(0.,0.,1.));
#978=DIRECTION('',(1.,0.,0.));
#979=DIRECTION('',(0.,0.,1.));
#980=DIRECTION('',(1.,0.,0.));
#981=DIRECTION('',(0.,0.,1.));
#982=DIRECTION('',(1.,0.,0.));
#983=DIRECTION('',(0.,0.,1.));
#984=DIRECTION('',(1.,0.,0.));
#985=DIRECTION('',(0.,0.,1.));
#986=DIRECTION('',(1.,0.,0.));
#987=DIRECTION('',(0.663107221863541,-0.748524423323927,0.));
#988=DIRECTION('',(0.,0.,1.));
#989=DIRECTION('',(1.,0.,0.));
#990=DIRECTION('',(0.999975761690552,0.00696247308072864,0.));
#991=DIRECTION('',(-0.00696247308072864,0.999975761690552,0.));
#992=DIRECTION('',(0.00696247308072864,-0.999975761690552,0.));
#993=DIRECTION('',(0.,0.,-1.));
#994=DIRECTION('',(0.00696247308072864,-0.999975761690552,0.));
#995=DIRECTION('',(0.,0.,-1.));
#996=DIRECTION('',(0.,1.,0.));
#997=DIRECTION('',(0.,0.,1.));
#998=DIRECTION('',(1.,0.,0.));
#999=DIRECTION('',(0.,0.,-1.));
#1000=DIRECTION('',(1.,0.,0.));
#1001=DIRECTION('',(0.,0.,-1.));
#1002=DIRECTION('',(-1.,0.,0.));
#1003=DIRECTION('',(0.,0.,-1.));
#1004=DIRECTION('',(1.,0.,0.));
#1005=DIRECTION('',(0.,0.,-1.));
#1006=DIRECTION('',(0.,0.,-1.));
#1007=DIRECTION('',(1.,0.,0.));
#1008=DIRECTION('',(0.,-1.,0.));
#1009=DIRECTION('',(0.,0.,-1.));
#1010=DIRECTION('',(-1.,0.,0.));
#1011=DIRECTION('',(-1.,0.,0.));
#1012=DIRECTION('',(0.,0.,1.));
#1013=DIRECTION('',(1.,0.,0.));
#1014=DIRECTION('',(1.,0.,0.));
#1015=DIRECTION('',(0.00696247308072786,-0.999975761690552,0.));
#1016=DIRECTION('',(-1.,0.,0.));
#1017=DIRECTION('',(0.,0.,-1.));
#1018=DIRECTION('',(1.,0.,0.));
#1019=DIRECTION('',(0.,0.,1.));
#1020=DIRECTION('',(1.,0.,0.));
#1021=DIRECTION('',(0.,-1.,0.));
#1022=DIRECTION('',(0.,0.,-1.));
#1023=DIRECTION('',(0.,0.,-1.));
#1024=DIRECTION('',(0.,0.,-1.));
#1025=DIRECTION('',(0.,0.,-1.));
#1026=DIRECTION('',(-1.,0.,0.));
#1027=DIRECTION('',(0.,0.,-1.));
#1028=DIRECTION('',(0.,1.,0.));
#1029=DIRECTION('',(0.,0.,1.));
#1030=DIRECTION('',(0.,0.,-1.));
#1031=DIRECTION('',(0.999975761690552,0.00696247308072786,0.));
#1032=DIRECTION('',(-0.00696247308072786,0.999975761690552,0.));
#1033=DIRECTION('',(1.,0.,0.));
#1034=DIRECTION('',(0.,0.,-1.));
#1035=DIRECTION('',(0.,0.,1.));
#1036=DIRECTION('',(0.,1.,0.));
#1037=DIRECTION('',(0.,0.,1.));
#1038=DIRECTION('',(0.,1.,0.));
#1039=DIRECTION('',(0.,0.,1.));
#1040=DIRECTION('',(0.,0.,1.));
#1041=DIRECTION('',(-1.,0.,0.));
#1042=DIRECTION('',(-1.,0.,0.));
#1043=DIRECTION('',(0.,0.,1.));
#1044=DIRECTION('',(0.,0.,1.));
#1045=DIRECTION('',(0.,-1.,0.));
#1046=DIRECTION('',(0.,-1.,0.));
#1047=DIRECTION('',(0.,0.,-1.));
#1048=DIRECTION('',(0.,0.,1.));
#1049=DIRECTION('',(1.,0.,0.));
#1050=DIRECTION('',(-1.,0.,0.));
#1051=DIRECTION('',(0.,0.,1.));
#1052=DIRECTION('',(0.,0.,1.));
#1053=DIRECTION('',(0.,-1.,0.));
#1054=DIRECTION('',(0.,-1.,0.));
#1055=DIRECTION('',(0.,0.,-1.));
#1056=DIRECTION('',(0.,0.,1.));
#1057=DIRECTION('',(1.,0.,0.));
#1058=DIRECTION('',(0.,0.,1.));
#1059=DIRECTION('',(0.425758905062302,-0.904836645345529,0.));
#1060=DIRECTION('',(0.,0.,1.));
#1061=DIRECTION('',(0.,0.,1.));
#1062=DIRECTION('',(1.,0.,0.));
#1063=DIRECTION('',(0.,0.,1.));
#1064=DIRECTION('',(0.25177021959464,-0.967787040895499,0.));
#1065=DIRECTION('',(0.,0.,1.));
#1066=DIRECTION('',(0.,0.,1.));
#1067=DIRECTION('',(1.,0.,0.));
#1068=DIRECTION('',(1.,0.,0.));
#1069=DIRECTION('',(0.,0.,-1.));
#1070=DIRECTION('',(0.,0.,1.));
#1071=DIRECTION('',(0.,1.,0.));
#1072=DIRECTION('',(0.,1.,0.));
#1073=DIRECTION('',(0.,0.,1.));
#1074=DIRECTION('',(0.,0.,1.));
#1075=DIRECTION('',(-1.,0.,0.));
#1076=DIRECTION('',(1.,0.,0.));
#1077=DIRECTION('',(0.,0.,-1.));
#1078=DIRECTION('',(0.,0.,1.));
#1079=DIRECTION('',(0.,1.,0.));
#1080=DIRECTION('',(0.,-1.,0.));
#1081=DIRECTION('',(0.,0.,-1.));
#1082=DIRECTION('',(1.,0.,0.));
#1083=DIRECTION('',(0.,0.,1.));
#1084=DIRECTION('',(1.,0.,0.));
#1085=DIRECTION('',(0.,0.,1.));
#1086=DIRECTION('',(-0.270390133811419,-0.962750837723574,0.));
#1087=DIRECTION('',(0.,0.,1.));
#1088=DIRECTION('',(0.,0.,1.));
#1089=DIRECTION('',(1.,0.,0.));
#1090=DIRECTION('',(0.,0.,1.));
#1091=DIRECTION('',(0.,0.,1.));
#1092=DIRECTION('',(0.,0.,1.));
#1093=DIRECTION('',(0.62024881179734,-0.784405132226956,0.));
#1094=DIRECTION('',(0.,0.,1.));
#1095=DIRECTION('',(0.,0.,1.));
#1096=DIRECTION('',(1.,0.,0.));
#1097=DIRECTION('',(-0.748524423323927,-0.663107221863541,0.));
#1098=DIRECTION('',(0.663107221863541,-0.748524423323927,0.));
#1099=DIRECTION('',(0.,0.,1.));
#1100=DIRECTION('',(0.663107221863541,-0.748524423323927,0.));
#1101=DIRECTION('',(0.,0.,1.));
#1102=DIRECTION('',(0.620489097212323,-0.784215072694115,0.));
#1103=DIRECTION('',(0.,0.,1.));
#1104=DIRECTION('',(0.,0.,1.));
#1105=DIRECTION('',(1.,0.,0.));
#1106=DIRECTION('',(0.,0.,1.));
#1107=DIRECTION('',(0.2361608037365,-0.971713988156253,0.));
#1108=DIRECTION('',(0.,0.,1.));
#1109=DIRECTION('',(0.,0.,1.));
#1110=DIRECTION('',(1.,0.,0.));
#1111=DIRECTION('',(0.,0.,1.));
#1112=DIRECTION('',(0.,0.,1.));
#1113=DIRECTION('',(0.,0.,1.));
#1114=DIRECTION('',(0.,0.,1.));
#1115=DIRECTION('',(0.,0.,1.));
#1116=DIRECTION('',(0.,0.,1.));
#1117=DIRECTION('',(-0.29167742863872,0.95651674194585,0.));
#1118=DIRECTION('',(0.,0.,1.));
#1119=DIRECTION('',(0.,0.,1.));
#1120=DIRECTION('',(1.,0.,0.));
#1121=DIRECTION('',(0.,0.,1.));
#1122=DIRECTION('',(0.226489325599433,0.974013647434939,0.));
#1123=DIRECTION('',(0.,0.,1.));
#1124=DIRECTION('',(0.,0.,1.));
#1125=DIRECTION('',(1.,0.,0.));
#1126=DIRECTION('',(0.,0.,1.));
#1127=DIRECTION('',(0.605945276926864,0.795506330188532,0.));
#1128=DIRECTION('',(0.,0.,1.));
#1129=DIRECTION('',(0.,0.,1.));
#1130=DIRECTION('',(1.,0.,0.));
#1131=DIRECTION('',(-0.768585310202142,0.639747310226059,0.));
#1132=DIRECTION('',(-0.639747310226059,-0.768585310202142,0.));
#1133=DIRECTION('',(0.,0.,1.));
#1134=DIRECTION('',(-0.639747310226059,-0.768585310202142,0.));
#1135=DIRECTION('',(0.,0.,1.));
#1136=DIRECTION('',(0.611778347377749,0.791029236931069,0.));
#1137=DIRECTION('',(0.,0.,1.));
#1138=DIRECTION('',(0.,0.,1.));
#1139=DIRECTION('',(1.,0.,0.));
#1140=DIRECTION('',(0.,0.,1.));
#1141=DIRECTION('',(0.,0.,1.));
#1142=DIRECTION('',(-0.268571853951879,0.963259653086773,0.));
#1143=DIRECTION('',(0.,0.,1.));
#1144=DIRECTION('',(0.,0.,1.));
#1145=DIRECTION('',(1.,0.,0.));
#1146=DIRECTION('',(0.,0.,1.));
#1147=DIRECTION('',(0.,0.,1.));
#1148=DIRECTION('',(0.,0.,1.));
#1149=DIRECTION('',(0.,0.,1.));
#1150=DIRECTION('',(1.,0.,0.));
#1151=CARTESIAN_POINT('',(0.,0.,0.));
#1152=CARTESIAN_POINT('',(-0.0127008168108376,-0.00513643309368744,0.0144));
#1153=CARTESIAN_POINT('',(-0.03220006954958,-0.00504559668199966,0.0144));
#1154=CARTESIAN_POINT('',(-0.0322322636807622,-0.000421758215743178,0.0144));
#1155=CARTESIAN_POINT('',(-0.0321678754183977,-0.00966943514825615,0.0144));
#1156=CARTESIAN_POINT('',(-0.024276007182678,-0.00966943514825616,0.0144));
#1157=CARTESIAN_POINT('',(-0.0163841389469583,-0.00966943514825614,0.0144));
#1158=CARTESIAN_POINT('',(-0.005789198630898,-0.00160645992087486,0.0144));
#1159=CARTESIAN_POINT('',(-0.0190504508978637,-0.000421758215743178,0.0144));
#1160=CARTESIAN_POINT('',(-0.0256413572893129,-0.000421758215743178,0.0144));
#1161=CARTESIAN_POINT('',(-0.0240544388555767,-0.00703422632068396,0.0144));
#1162=CARTESIAN_POINT('',(-0.0230963382540115,-0.00703422632068396,0.0144));
#1163=CARTESIAN_POINT('',(-0.0250125394571417,-0.00703422632068396,0.0144));
#1164=CARTESIAN_POINT('',(-0.0250125394571417,-0.00685333493106555,0.0144));
#1165=CARTESIAN_POINT('',(-0.0250125394571417,-0.00667244354144714,0.0144));
#1166=CARTESIAN_POINT('',(-0.0246241427723059,-0.00667244354144714,0.0144));
#1167=CARTESIAN_POINT('',(-0.02423574608747,-0.00667244354144714,0.0144));
#1168=CARTESIAN_POINT('',(-0.02423574608747,-0.00542158997829271,0.0144));
#1169=CARTESIAN_POINT('',(-0.02423574608747,-0.00417073641513828,0.0144));
#1170=CARTESIAN_POINT('',(-0.0245443010555088,-0.00417073641513828,0.0144));
#1171=CARTESIAN_POINT('',(-0.0248528560235475,-0.00417073641513828,0.0144));
#1172=CARTESIAN_POINT('',(-0.0248528560235475,-0.00402976588391842,0.0144));
#1173=CARTESIAN_POINT('',(-0.0248528560235475,-0.00388845169758092,0.0144));
#1174=CARTESIAN_POINT('',(-0.0253220911349827,-0.00119737544452327,0.0144));
#1175=CARTESIAN_POINT('',(-0.0244461329418524,-0.00378450816793767,0.0144));
#1176=CARTESIAN_POINT('',(-0.0249866523262362,-0.00221916970737176,0.0144));
#1177=CARTESIAN_POINT('',(-0.024133922895482,-0.00363845830315767,0.0144));
#1178=CARTESIAN_POINT('',(-0.0239666961355549,-0.00363845830315767,0.0144));
#1179=CARTESIAN_POINT('',(-0.0237991116987359,-0.00363845830315767,0.0144));
#1180=CARTESIAN_POINT('',(-0.0237991116987359,-0.00515545092230241,0.0144));
#1181=CARTESIAN_POINT('',(-0.0237991116987359,-0.00667244354144714,0.0144));
#1182=CARTESIAN_POINT('',(-0.0234477249763738,-0.00667244354144714,0.0144));
#1183=CARTESIAN_POINT('',(-0.0230963382540115,-0.00667244354144714,0.0144));
#1184=CARTESIAN_POINT('',(-0.0230963382540115,-0.00685333493106555,0.0144));
#1185=CARTESIAN_POINT('',(-0.0260716897315282,-0.00696519650303647,0.0144));
#1186=CARTESIAN_POINT('',(-0.0263324228379437,-0.00709826603103162,0.0144));
#1187=CARTESIAN_POINT('',(-0.0266734135034312,-0.00709826603103162,0.0144));
#1188=CARTESIAN_POINT('',(-0.0260716897315282,-0.00696519650303647,0.0144));
#1189=CARTESIAN_POINT('',(-0.0266734135034312,-0.00709826603103162,0.0144));
#1190=CARTESIAN_POINT('',(-0.0266993007820777,-0.00566509117661851,0.0144));
#1191=CARTESIAN_POINT('',(-0.0274531177690278,-0.00688244389031449,0.0144));
#1192=CARTESIAN_POINT('',(-0.0274531177690278,-0.00688244389031449,0.0144));
#1193=CARTESIAN_POINT('',(-0.0277961876458903,-0.00666662174959735,0.0144));
#1194=CARTESIAN_POINT('',(-0.0279957919378831,-0.00626242305831208,0.0144));
#1195=CARTESIAN_POINT('',(-0.0279957919378831,-0.00626242305831208,0.0144));
#1196=CARTESIAN_POINT('',(-0.0279957919378831,-0.00626242305831208,0.0144));
#1197=CARTESIAN_POINT('',(-0.0281953962298758,-0.0058582243670268,0.0144));
#1198=CARTESIAN_POINT('',(-0.0281953962298758,-0.00528852045029756,0.0144));
#1199=CARTESIAN_POINT('',(-0.0281953962298758,-0.00528852045029756,0.0144));
#1200=CARTESIAN_POINT('',(-0.0281953962298758,-0.00528852045029756,0.0144));
#1201=CARTESIAN_POINT('',(-0.0281953962298758,-0.00472380664086813,0.0144));
#1202=CARTESIAN_POINT('',(-0.0279932968842332,-0.00431960794958286,0.0144));
#1203=CARTESIAN_POINT('',(-0.0279932968842332,-0.00431960794958286,0.0144));
#1204=CARTESIAN_POINT('',(-0.0279932968842332,-0.00431960794958286,0.0144));
#1205=CARTESIAN_POINT('',(-0.0277911975385905,-0.00391540925829758,0.0144));
#1206=CARTESIAN_POINT('',(-0.0274398108162283,-0.00369709206393054,0.0144));
#1207=CARTESIAN_POINT('',(-0.0274398108162283,-0.00369709206393054,0.0144));
#1208=CARTESIAN_POINT('',(-0.026670858531966,-0.00495008287988551,0.0144));
#1209=CARTESIAN_POINT('',(-0.0266467995978322,-0.0034787748695635,0.0144));
#1210=CARTESIAN_POINT('',(-0.0266467995978322,-0.0034787748695635,0.0144));
#1211=CARTESIAN_POINT('',(-0.0263274327306438,-0.0034787748695635,0.0144));
#1212=CARTESIAN_POINT('',(-0.0260825016306777,-0.00360893350163376,0.0144));
#1213=CARTESIAN_POINT('',(-0.0260825016306777,-0.00360893350163376,0.0144));
#1214=CARTESIAN_POINT('',(-0.0267007772261135,-0.00483425108345251,0.0144));
#1215=CARTESIAN_POINT('',(-0.0256881840244706,-0.00390896878505332,0.0144));
#1216=CARTESIAN_POINT('',(-0.0258084615714627,-0.00405346889359256,0.0144));
#1217=CARTESIAN_POINT('',(-0.0259282241466584,-0.00419735032073732,0.0144));
#1218=CARTESIAN_POINT('',(-0.026763069273482,-0.00496537787140627,0.0144));
#1219=CARTESIAN_POINT('',(-0.0262420805090656,-0.0039576121213441,0.0144));
#1220=CARTESIAN_POINT('',(-0.0266242783277692,-0.00472604008512769,0.0144));
#1221=CARTESIAN_POINT('',(-0.0266409920014401,-0.00386764262505222,0.0144));
#1222=CARTESIAN_POINT('',(-0.0266639999106433,-0.00484985394269912,0.0144));
#1223=CARTESIAN_POINT('',(-0.0272185827259364,-0.00404016194079304,0.0144));
#1224=CARTESIAN_POINT('',(-0.0272185827259364,-0.00404016194079304,0.0144));
#1225=CARTESIAN_POINT('',(-0.0274660088795524,-0.00421315232718674,0.0144));
#1226=CARTESIAN_POINT('',(-0.0276019893034724,-0.0045271132448003,0.0144));
#1227=CARTESIAN_POINT('',(-0.0276019893034724,-0.0045271132448003,0.0144));
#1228=CARTESIAN_POINT('',(-0.0276019893034724,-0.0045271132448003,0.0144));
#1229=CARTESIAN_POINT('',(-0.0277379697273924,-0.00484107416241386,0.0144));
#1230=CARTESIAN_POINT('',(-0.0277379697273924,-0.00527770855114795,0.0144));
#1231=CARTESIAN_POINT('',(-0.0277379697273924,-0.00527770855114795,0.0144));
#1232=CARTESIAN_POINT('',(-0.0277379697273924,-0.00527770855114795,0.0144));
#1233=CARTESIAN_POINT('',(-0.0277379697273924,-0.00571434293988204,0.0144));
#1234=CARTESIAN_POINT('',(-0.0276049001993973,-0.00603620486072032,0.0144));
#1235=CARTESIAN_POINT('',(-0.0276049001993973,-0.00603620486072032,0.0144));
#1236=CARTESIAN_POINT('',(-0.0276049001993973,-0.00603620486072032,0.0144));
#1237=CARTESIAN_POINT('',(-0.0274718306714022,-0.00635806678155859,0.0144));
#1238=CARTESIAN_POINT('',(-0.027229394625086,-0.00653396806387718,0.0144));
#1239=CARTESIAN_POINT('',(-0.027229394625086,-0.00653396806387718,0.0144));
#1240=CARTESIAN_POINT('',(-0.027229394625086,-0.00653396806387718,0.0144));
#1241=CARTESIAN_POINT('',(-0.0269869585787698,-0.00670986934619577,0.0144));
#1242=CARTESIAN_POINT('',(-0.0266576114969818,-0.00670986934619577,0.0144));
#1243=CARTESIAN_POINT('',(-0.0266576114969818,-0.00670986934619577,0.0144));
#1244=CARTESIAN_POINT('',(-0.026639481353433,-0.00578256344108411,0.0144));
#1245=CARTESIAN_POINT('',(-0.0262100442778703,-0.0066036386029945,0.0144));
#1246=CARTESIAN_POINT('',(-0.0268688692526807,-0.00540686048433206,0.0144));
#1247=CARTESIAN_POINT('',(-0.0258483824298613,-0.00631565086951014,0.0144));
#1248=CARTESIAN_POINT('',(-0.0257257089587407,-0.00645412634708009,0.0144));
#1249=CARTESIAN_POINT('',(-0.0256033326487098,-0.00659226637473945,0.0144));
#1250=CARTESIAN_POINT('',(-0.0267896622607371,-0.00558447851967489,0.0144));
#1251=CARTESIAN_POINT('',(-0.0329647972591327,-0.00513643309368745,0.0119));
#1252=CARTESIAN_POINT('',(-0.0329647972591327,-0.00513643309368745,0.0104));
#1253=CARTESIAN_POINT('',(-0.0330006634630324,1.48018407627945E-5,0.0104));
#1254=CARTESIAN_POINT('',(-0.032928931055233,-0.0102876680281377,0.0104));
#1255=CARTESIAN_POINT('',(-0.032928931055233,-0.0102876680281377,0.0119));
#1256=CARTESIAN_POINT('',(-0.032928931055233,-0.0102876680281377,0.0119));
#1257=CARTESIAN_POINT('',(-0.0329647972591327,-0.00513643309368745,0.0119));
#1258=CARTESIAN_POINT('',(-0.0330006634630324,1.48018407627945E-5,0.0119));
#1259=CARTESIAN_POINT('',(-0.0330006634630324,1.48018407627945E-5,0.0119));
#1260=CARTESIAN_POINT('',(-0.0241369138490543,-0.0102876680281377,0.0119));
#1261=CARTESIAN_POINT('',(-0.0241369138490543,-0.0102876680281377,0.0104));
#1262=CARTESIAN_POINT('',(-0.0153448966428756,-0.0102876680281377,0.0104));
#1263=CARTESIAN_POINT('',(-0.0153448966428756,-0.0102876680281377,0.0119));
#1264=CARTESIAN_POINT('',(-0.0153448966428756,-0.0102876680281377,0.0119));
#1265=CARTESIAN_POINT('',(-0.0241369138490543,-0.0102876680281377,0.0119));
#1266=CARTESIAN_POINT('',(-0.00354149410561292,-0.00130502731306967,0.0119));
#1267=CARTESIAN_POINT('',(-0.00354149410561292,-0.00130502731306967,0.0104));
#1268=CARTESIAN_POINT('',(-0.0183153289726119,1.4801840762798E-5,0.0104));
#1269=CARTESIAN_POINT('',(-0.0183153289726119,1.4801840762798E-5,0.0119));
#1270=CARTESIAN_POINT('',(-0.0183153289726119,1.4801840762798E-5,0.0119));
#1271=CARTESIAN_POINT('',(-0.00354149410561292,-0.00130502731306967,0.0119));
#1272=CARTESIAN_POINT('',(-0.0256579962178222,1.4801840762798E-5,0.0119));
#1273=CARTESIAN_POINT('',(-0.0256579962178222,1.4801840762798E-5,0.0104));
#1274=CARTESIAN_POINT('',(-0.0256579962178222,1.4801840762798E-5,0.0119));
#1275=CARTESIAN_POINT('',(-0.0127008168108376,-0.00513643309368744,0.0119));
#1276=CARTESIAN_POINT('',(-0.024276007182678,-0.00966943514825616,0.0119));
#1277=CARTESIAN_POINT('',(-0.0321678754183977,-0.00966943514825615,0.0119));
#1278=CARTESIAN_POINT('',(-0.0163841389469583,-0.00966943514825614,0.0119));
#1279=CARTESIAN_POINT('',(-0.03220006954958,-0.00504559668199966,0.0119));
#1280=CARTESIAN_POINT('',(-0.0322322636807622,-0.000421758215743178,0.0119));
#1281=CARTESIAN_POINT('',(-0.0256413572893129,-0.000421758215743178,0.0119));
#1282=CARTESIAN_POINT('',(-0.0190504508978637,-0.000421758215743178,0.0119));
#1283=CARTESIAN_POINT('',(-0.005789198630898,-0.00160645992087486,0.0119));
#1284=CARTESIAN_POINT('',(-0.0127008168108376,-0.00513643309368744,0.0104));
#1285=CARTESIAN_POINT('',(-0.0256413572893129,-0.000421758215743178,0.0144));
#1286=CARTESIAN_POINT('',(-0.0322322636807622,-0.000421758215743178,0.0144));
#1287=CARTESIAN_POINT('',(-0.0190504508978637,-0.000421758215743178,0.0144));
#1288=CARTESIAN_POINT('',(-0.005789198630898,-0.00160645992087486,0.0144));
#1289=CARTESIAN_POINT('',(-0.0163841389469583,-0.00966943514825614,0.0144));
#1290=CARTESIAN_POINT('',(-0.024276007182678,-0.00966943514825616,0.0144));
#1291=CARTESIAN_POINT('',(-0.0321678754183977,-0.00966943514825615,0.0144));
#1292=CARTESIAN_POINT('',(-0.03220006954958,-0.00504559668199966,0.0144));
#1293=CARTESIAN_POINT('',(-0.0250125394571417,-0.00685333493106555,0.0124));
#1294=CARTESIAN_POINT('',(-0.0250125394571417,-0.00703422632068396,0.0124));
#1295=CARTESIAN_POINT('',(-0.0250125394571417,-0.00703422632068396,0.0124));
#1296=CARTESIAN_POINT('',(-0.0250125394571417,-0.00685333493106555,0.0124));
#1297=CARTESIAN_POINT('',(-0.0250125394571417,-0.00667244354144714,0.0124));
#1298=CARTESIAN_POINT('',(-0.0250125394571417,-0.00667244354144714,0.0124));
#1299=CARTESIAN_POINT('',(-0.0240544388555767,-0.00703422632068396,0.0124));
#1300=CARTESIAN_POINT('',(-0.0230963382540115,-0.00703422632068396,0.0124));
#1301=CARTESIAN_POINT('',(-0.0230963382540115,-0.00703422632068396,0.0124));
#1302=CARTESIAN_POINT('',(-0.0240544388555767,-0.00703422632068396,0.0124));
#1303=CARTESIAN_POINT('',(-0.0230963382540115,-0.00685333493106555,0.0124));
#1304=CARTESIAN_POINT('',(-0.0230963382540115,-0.00667244354144714,0.0124));
#1305=CARTESIAN_POINT('',(-0.0230963382540115,-0.00667244354144714,0.0124));
#1306=CARTESIAN_POINT('',(-0.0230963382540115,-0.00685333493106555,0.0124));
#1307=CARTESIAN_POINT('',(-0.0234477249763738,-0.00667244354144714,0.0124));
#1308=CARTESIAN_POINT('',(-0.0237991116987359,-0.00667244354144714,0.0124));
#1309=CARTESIAN_POINT('',(-0.0237991116987359,-0.00667244354144714,0.0124));
#1310=CARTESIAN_POINT('',(-0.0234477249763738,-0.00667244354144714,0.0124));
#1311=CARTESIAN_POINT('',(-0.0237991116987359,-0.00515545092230241,0.0124));
#1312=CARTESIAN_POINT('',(-0.0237991116987359,-0.00363845830315767,0.0124));
#1313=CARTESIAN_POINT('',(-0.0237991116987359,-0.00363845830315767,0.0124));
#1314=CARTESIAN_POINT('',(-0.0237991116987359,-0.00515545092230241,0.0124));
#1315=CARTESIAN_POINT('',(-0.0239666961355549,-0.00363845830315767,0.0124));
#1316=CARTESIAN_POINT('',(-0.024133922895482,-0.00363845830315767,0.0124));
#1317=CARTESIAN_POINT('',(-0.024133922895482,-0.00363845830315767,0.0124));
#1318=CARTESIAN_POINT('',(-0.0239666961355549,-0.00363845830315767,0.0124));
#1319=CARTESIAN_POINT('',(-0.0249866523262362,-0.00221916970737176,0.0124000000000002));
#1320=CARTESIAN_POINT('',(-0.0244461622786123,-0.00378441894167736,0.0124));
#1321=CARTESIAN_POINT('',(-0.0244461329418524,-0.00378450816793767,0.0124));
#1322=CARTESIAN_POINT('',(-0.0249866523262362,-0.00221916970737176,0.0124));
#1323=CARTESIAN_POINT('',(-0.0253220911349827,-0.00119737544452327,0.0124000000000004));
#1324=CARTESIAN_POINT('',(-0.0248528560235475,-0.00388845169758092,0.0124));
#1325=CARTESIAN_POINT('',(-0.0248528560235475,-0.00388845169758092,0.0124));
#1326=CARTESIAN_POINT('',(-0.0253220911349827,-0.00119737544452327,0.0124));
#1327=CARTESIAN_POINT('',(-0.0248528560235475,-0.00402976588391842,0.0124));
#1328=CARTESIAN_POINT('',(-0.0248528560235475,-0.00417073641513828,0.0124));
#1329=CARTESIAN_POINT('',(-0.0248528560235475,-0.00417073641513828,0.0124));
#1330=CARTESIAN_POINT('',(-0.0248528560235475,-0.00402976588391842,0.0124));
#1331=CARTESIAN_POINT('',(-0.0245443010555088,-0.00417073641513828,0.0124));
#1332=CARTESIAN_POINT('',(-0.02423574608747,-0.00417073641513828,0.0124));
#1333=CARTESIAN_POINT('',(-0.02423574608747,-0.00417073641513828,0.0124));
#1334=CARTESIAN_POINT('',(-0.0245443010555088,-0.00417073641513828,0.0124));
#1335=CARTESIAN_POINT('',(-0.02423574608747,-0.00542158997829271,0.0124));
#1336=CARTESIAN_POINT('',(-0.02423574608747,-0.00667244354144714,0.0124));
#1337=CARTESIAN_POINT('',(-0.02423574608747,-0.00667244354144714,0.0124));
#1338=CARTESIAN_POINT('',(-0.02423574608747,-0.00542158997829271,0.0124));
#1339=CARTESIAN_POINT('',(-0.0246241427723059,-0.00667244354144714,0.0124));
#1340=CARTESIAN_POINT('',(-0.0246241427723059,-0.00667244354144714,0.0124));
#1341=CARTESIAN_POINT('',(0.00182674459592829,-0.00495517174958258,0.0124));
#1342=CARTESIAN_POINT('',(-0.0266993007820777,-0.00566509117661851,0.0124));
#1343=CARTESIAN_POINT('',(-0.0266734135034312,-0.00709826603103162,0.0124));
#1344=CARTESIAN_POINT('',(-0.0266734135034312,-0.00709826603103162,0.0124));
#1345=CARTESIAN_POINT('',(-0.0266993007820777,-0.00566509117661851,0.0124));
#1346=CARTESIAN_POINT('',(-0.0274531177690278,-0.00688244389031449,0.0124));
#1347=CARTESIAN_POINT('',(-0.0274531177690278,-0.00688244389031449,0.0124));
#1348=CARTESIAN_POINT('',(-0.0260716897315282,-0.00696519650303647,0.0124));
#1349=CARTESIAN_POINT('',(-0.0260716897315282,-0.00696519650303647,0.0144));
#1350=CARTESIAN_POINT('',(-0.0262455118024718,-0.0070539095216999,0.0124));
#1351=CARTESIAN_POINT('',(-0.0262455118024718,-0.0070539095216999,0.0144));
#1352=CARTESIAN_POINT('',(-0.0264460863931062,-0.00709826603103162,0.0124));
#1353=CARTESIAN_POINT('',(-0.0264460863931062,-0.00709826603103162,0.0144));
#1354=CARTESIAN_POINT('',(-0.0266734135034312,-0.00709826603103162,0.0124));
#1355=CARTESIAN_POINT('',(-0.0266734135034312,-0.00709826603103162,0.0144));
#1356=CARTESIAN_POINT('',(-0.0260716897315282,-0.00696519650303647,0.0124));
#1357=CARTESIAN_POINT('',(-0.0260716897315282,-0.00696519650303647,0.0124));
#1358=CARTESIAN_POINT('',(-0.0260716897315282,-0.00696519650303647,0.0124));
#1359=CARTESIAN_POINT('',(-0.0263324228379437,-0.00709826603103162,0.0124));
#1360=CARTESIAN_POINT('',(-0.0266734135034312,-0.00709826603103162,0.0124));
#1361=CARTESIAN_POINT('',(-0.0267896622607371,-0.00558447851967489,0.0124000000000001));
#1362=CARTESIAN_POINT('',(-0.0256033326395424,-0.0065922663746443,0.0124));
#1363=CARTESIAN_POINT('',(-0.0256033326487098,-0.00659226637473945,0.0124));
#1364=CARTESIAN_POINT('',(-0.0267896622607371,-0.00558447851967489,0.0124));
#1365=CARTESIAN_POINT('',(-0.0257257089587407,-0.00645412634708009,0.0124));
#1366=CARTESIAN_POINT('',(-0.0258485973719897,-0.00631540823992115,0.0124));
#1367=CARTESIAN_POINT('',(-0.0258483824298613,-0.00631565086951014,0.0124));
#1368=CARTESIAN_POINT('',(-0.0257257089587407,-0.00645412634708009,0.0124));
#1369=CARTESIAN_POINT('',(-0.0268688692526807,-0.00540686048433206,0.0124000000000001));
#1370=CARTESIAN_POINT('',(-0.0262101652090981,-0.00660341372379965,0.0124));
#1371=CARTESIAN_POINT('',(-0.0262100442778703,-0.0066036386029945,0.0124));
#1372=CARTESIAN_POINT('',(-0.0268688692526807,-0.00540686048433206,0.0124));
#1373=CARTESIAN_POINT('',(-0.026639481353433,-0.00578256344108411,0.0124));
#1374=CARTESIAN_POINT('',(-0.0266576114969818,-0.00670986934619577,0.0124));
#1375=CARTESIAN_POINT('',(-0.0266576114969818,-0.00670986934619577,0.0124));
#1376=CARTESIAN_POINT('',(-0.026639481353433,-0.00578256344108411,0.0124));
#1377=CARTESIAN_POINT('',(-0.027229394625086,-0.00653396806387718,0.0124));
#1378=CARTESIAN_POINT('',(-0.027229394625086,-0.00653396806387718,0.0144));
#1379=CARTESIAN_POINT('',(-0.0270677705942085,-0.00665123558542291,0.0124));
#1380=CARTESIAN_POINT('',(-0.0270677705942085,-0.00665123558542291,0.0144));
#1381=CARTESIAN_POINT('',(-0.0268771762181738,-0.00670986934619577,0.0124));
#1382=CARTESIAN_POINT('',(-0.0268771762181738,-0.00670986934619577,0.0144));
#1383=CARTESIAN_POINT('',(-0.0266576114969818,-0.00670986934619577,0.0124));
#1384=CARTESIAN_POINT('',(-0.0266576114969818,-0.00670986934619577,0.0144));
#1385=CARTESIAN_POINT('',(-0.027229394625086,-0.00653396806387718,0.0124));
#1386=CARTESIAN_POINT('',(-0.027229394625086,-0.00653396806387718,0.0124));
#1387=CARTESIAN_POINT('',(-0.027229394625086,-0.00653396806387718,0.0124));
#1388=CARTESIAN_POINT('',(-0.0269869585787698,-0.00670986934619577,0.0124));
#1389=CARTESIAN_POINT('',(-0.0266576114969818,-0.00670986934619577,0.0124));
#1390=CARTESIAN_POINT('',(-0.0276049001993973,-0.00603620486072032,0.0124));
#1391=CARTESIAN_POINT('',(-0.0276049001993973,-0.00603620486072032,0.0144));
#1392=CARTESIAN_POINT('',(-0.0275161871807339,-0.0062507794746125,0.0124));
#1393=CARTESIAN_POINT('',(-0.0275161871807339,-0.0062507794746125,0.0144));
#1394=CARTESIAN_POINT('',(-0.0273910186559634,-0.00641670054233145,0.0124));
#1395=CARTESIAN_POINT('',(-0.0273910186559634,-0.00641670054233145,0.0144));
#1396=CARTESIAN_POINT('',(-0.027229394625086,-0.00653396806387718,0.0124));
#1397=CARTESIAN_POINT('',(-0.027229394625086,-0.00653396806387718,0.0144));
#1398=CARTESIAN_POINT('',(-0.0276049001993973,-0.00603620486072032,0.0124));
#1399=CARTESIAN_POINT('',(-0.0276049001993973,-0.00603620486072032,0.0124));
#1400=CARTESIAN_POINT('',(-0.0276049001993973,-0.00603620486072032,0.0124));
#1401=CARTESIAN_POINT('',(-0.0274718306714022,-0.00635806678155859,0.0124));
#1402=CARTESIAN_POINT('',(-0.027229394625086,-0.00653396806387718,0.0124));
#1403=CARTESIAN_POINT('',(-0.0277379697273924,-0.00527770855114795,0.0124));
#1404=CARTESIAN_POINT('',(-0.0277379697273924,-0.00527770855114795,0.0144));
#1405=CARTESIAN_POINT('',(-0.0277379697273924,-0.00556879814363734,0.0124));
#1406=CARTESIAN_POINT('',(-0.0277379697273924,-0.00556879814363734,0.0144));
#1407=CARTESIAN_POINT('',(-0.0276936132180607,-0.00582163024682813,0.0124));
#1408=CARTESIAN_POINT('',(-0.0276936132180607,-0.00582163024682813,0.0144));
#1409=CARTESIAN_POINT('',(-0.0276049001993973,-0.00603620486072032,0.0124));
#1410=CARTESIAN_POINT('',(-0.0276049001993973,-0.00603620486072032,0.0144));
#1411=CARTESIAN_POINT('',(-0.0277379697273924,-0.00527770855114795,0.0124));
#1412=CARTESIAN_POINT('',(-0.0277379697273924,-0.00527770855114795,0.0124));
#1413=CARTESIAN_POINT('',(-0.0277379697273924,-0.00527770855114795,0.0124));
#1414=CARTESIAN_POINT('',(-0.0277379697273924,-0.00571434293988204,0.0124));
#1415=CARTESIAN_POINT('',(-0.0276049001993973,-0.00603620486072032,0.0124));
#1416=CARTESIAN_POINT('',(-0.0276019893034724,-0.0045271132448003,0.0124));
#1417=CARTESIAN_POINT('',(-0.0276019893034724,-0.0045271132448003,0.0144));
#1418=CARTESIAN_POINT('',(-0.0276926429194191,-0.00473642052320934,0.0124));
#1419=CARTESIAN_POINT('',(-0.0276926429194191,-0.00473642052320934,0.0144));
#1420=CARTESIAN_POINT('',(-0.0277379697273924,-0.00498661895865856,0.0124));
#1421=CARTESIAN_POINT('',(-0.0277379697273924,-0.00498661895865856,0.0144));
#1422=CARTESIAN_POINT('',(-0.0277379697273924,-0.00527770855114795,0.0124));
#1423=CARTESIAN_POINT('',(-0.0277379697273924,-0.00527770855114795,0.0144));
#1424=CARTESIAN_POINT('',(-0.0276019893034724,-0.0045271132448003,0.0124));
#1425=CARTESIAN_POINT('',(-0.0276019893034724,-0.0045271132448003,0.0124));
#1426=CARTESIAN_POINT('',(-0.0276019893034724,-0.0045271132448003,0.0124));
#1427=CARTESIAN_POINT('',(-0.0277379697273924,-0.00484107416241386,0.0124));
#1428=CARTESIAN_POINT('',(-0.0277379697273924,-0.00527770855114795,0.0124));
#1429=CARTESIAN_POINT('',(-0.0272185827259364,-0.00404016194079304,0.0124));
#1430=CARTESIAN_POINT('',(-0.0272185827259364,-0.00404016194079304,0.0144));
#1431=CARTESIAN_POINT('',(-0.0273835334950137,-0.00415548886505551,0.0124));
#1432=CARTESIAN_POINT('',(-0.0273835334950137,-0.00415548886505551,0.0144));
#1433=CARTESIAN_POINT('',(-0.0275113356875257,-0.00431780596639126,0.0124));
#1434=CARTESIAN_POINT('',(-0.0275113356875257,-0.00431780596639126,0.0144));
#1435=CARTESIAN_POINT('',(-0.0276019893034724,-0.0045271132448003,0.0124));
#1436=CARTESIAN_POINT('',(-0.0276019893034724,-0.0045271132448003,0.0144));
#1437=CARTESIAN_POINT('',(-0.0272185827259364,-0.00404016194079304,0.0124));
#1438=CARTESIAN_POINT('',(-0.0272185827259364,-0.00404016194079304,0.0124));
#1439=CARTESIAN_POINT('',(-0.0272185827259364,-0.00404016194079304,0.0124));
#1440=CARTESIAN_POINT('',(-0.0274660088795524,-0.00421315232718674,0.0124));
#1441=CARTESIAN_POINT('',(-0.0276019893034724,-0.0045271132448003,0.0124));
#1442=CARTESIAN_POINT('',(-0.0266639999106433,-0.00484985394269912,0.0124));
#1443=CARTESIAN_POINT('',(-0.0266409778059824,-0.00386717155439934,0.0124));
#1444=CARTESIAN_POINT('',(-0.0266409920014401,-0.00386764262505222,0.0124));
#1445=CARTESIAN_POINT('',(-0.0266639999106433,-0.00484985394269912,0.0124));
#1446=CARTESIAN_POINT('',(-0.0266242783277692,-0.00472604008512769,0.0124));
#1447=CARTESIAN_POINT('',(-0.026242185064272,-0.00395782517034604,0.0124));
#1448=CARTESIAN_POINT('',(-0.0262420805090656,-0.0039576121213441,0.0124));
#1449=CARTESIAN_POINT('',(-0.0266242783277692,-0.00472604008512769,0.0124));
#1450=CARTESIAN_POINT('',(-0.026763069273482,-0.00496537787140627,0.0124000000000001));
#1451=CARTESIAN_POINT('',(-0.0259282875406477,-0.00419742648157164,0.0124));
#1452=CARTESIAN_POINT('',(-0.0259282241466584,-0.00419735032073732,0.0124));
#1453=CARTESIAN_POINT('',(-0.026763069273482,-0.00496537787140627,0.0124));
#1454=CARTESIAN_POINT('',(-0.0258084615714627,-0.00405346889359256,0.0124));
#1455=CARTESIAN_POINT('',(-0.0256881840244706,-0.00390896878505332,0.0124));
#1456=CARTESIAN_POINT('',(-0.0256881840244706,-0.00390896878505332,0.0124));
#1457=CARTESIAN_POINT('',(-0.0258084615714627,-0.00405346889359256,0.0124));
#1458=CARTESIAN_POINT('',(-0.0267007772261135,-0.00483425108345251,0.0124000000000001));
#1459=CARTESIAN_POINT('',(-0.0260825016306777,-0.00360893350163376,0.0124));
#1460=CARTESIAN_POINT('',(-0.0260825016306777,-0.00360893350163376,0.0124));
#1461=CARTESIAN_POINT('',(-0.0267007772261135,-0.00483425108345251,0.0124));
#1462=CARTESIAN_POINT('',(-0.0266467995978322,-0.0034787748695635,0.0124));
#1463=CARTESIAN_POINT('',(-0.0266467995978322,-0.0034787748695635,0.0144));
#1464=CARTESIAN_POINT('',(-0.02643388835304,-0.0034787748695635,0.0124));
#1465=CARTESIAN_POINT('',(-0.02643388835304,-0.0034787748695635,0.0144));
#1466=CARTESIAN_POINT('',(-0.0262457890306552,-0.00352216108025358,0.0124));
#1467=CARTESIAN_POINT('',(-0.0262457890306552,-0.00352216108025358,0.0144));
#1468=CARTESIAN_POINT('',(-0.0260825016306777,-0.00360893350163376,0.0124));
#1469=CARTESIAN_POINT('',(-0.0260825016306777,-0.00360893350163376,0.0144));
#1470=CARTESIAN_POINT('',(-0.0266467995978322,-0.0034787748695635,0.0124));
#1471=CARTESIAN_POINT('',(-0.0266467995978322,-0.0034787748695635,0.0124));
#1472=CARTESIAN_POINT('',(-0.0266467995978322,-0.0034787748695635,0.0124));
#1473=CARTESIAN_POINT('',(-0.0263274327306438,-0.0034787748695635,0.0124));
#1474=CARTESIAN_POINT('',(-0.0260825016306777,-0.00360893350163376,0.0124));
#1475=CARTESIAN_POINT('',(-0.026670858531966,-0.00495008287988551,0.0124));
#1476=CARTESIAN_POINT('',(-0.0274398108162283,-0.00369709206393054,0.0124));
#1477=CARTESIAN_POINT('',(-0.0274398108162283,-0.00369709206393054,0.0124));
#1478=CARTESIAN_POINT('',(-0.026670858531966,-0.00495008287988551,0.0124));
#1479=CARTESIAN_POINT('',(-0.0279932968842332,-0.00431960794958286,0.0124));
#1480=CARTESIAN_POINT('',(-0.0279932968842332,-0.00431960794958286,0.0144));
#1481=CARTESIAN_POINT('',(-0.0278585639871381,-0.00405014215539268,0.0124));
#1482=CARTESIAN_POINT('',(-0.0278585639871381,-0.00405014215539268,0.0144));
#1483=CARTESIAN_POINT('',(-0.0276740686311364,-0.00384263686017524,0.0124));
#1484=CARTESIAN_POINT('',(-0.0276740686311364,-0.00384263686017524,0.0144));
#1485=CARTESIAN_POINT('',(-0.0274398108162283,-0.00369709206393054,0.0124));
#1486=CARTESIAN_POINT('',(-0.0274398108162283,-0.00369709206393054,0.0144));
#1487=CARTESIAN_POINT('',(-0.0279932968842332,-0.00431960794958286,0.0124));
#1488=CARTESIAN_POINT('',(-0.0279932968842332,-0.00431960794958286,0.0124));
#1489=CARTESIAN_POINT('',(-0.0279932968842332,-0.00431960794958286,0.0124));
#1490=CARTESIAN_POINT('',(-0.0277911975385905,-0.00391540925829758,0.0124));
#1491=CARTESIAN_POINT('',(-0.0274398108162283,-0.00369709206393054,0.0124));
#1492=CARTESIAN_POINT('',(-0.0281953962298758,-0.00528852045029756,0.0124));
#1493=CARTESIAN_POINT('',(-0.0281953962298758,-0.00528852045029756,0.0144));
#1494=CARTESIAN_POINT('',(-0.0281953962298758,-0.00491204457734461,0.0124));
#1495=CARTESIAN_POINT('',(-0.0281953962298758,-0.00491204457734461,0.0144));
#1496=CARTESIAN_POINT('',(-0.0281280297813282,-0.00458907374377304,0.0124));
#1497=CARTESIAN_POINT('',(-0.0281280297813282,-0.00458907374377304,0.0144));
#1498=CARTESIAN_POINT('',(-0.0279932968842332,-0.00431960794958286,0.0124));
#1499=CARTESIAN_POINT('',(-0.0279932968842332,-0.00431960794958286,0.0144));
#1500=CARTESIAN_POINT('',(-0.0281953962298758,-0.00528852045029756,0.0124));
#1501=CARTESIAN_POINT('',(-0.0281953962298758,-0.00528852045029756,0.0124));
#1502=CARTESIAN_POINT('',(-0.0281953962298758,-0.00528852045029756,0.0124));
#1503=CARTESIAN_POINT('',(-0.0281953962298758,-0.00472380664086813,0.0124));
#1504=CARTESIAN_POINT('',(-0.0279932968842332,-0.00431960794958286,0.0124));
#1505=CARTESIAN_POINT('',(-0.0279957919378831,-0.00626242305831208,0.0124));
#1506=CARTESIAN_POINT('',(-0.0279957919378831,-0.00626242305831208,0.0144));
#1507=CARTESIAN_POINT('',(-0.0281288614658782,-0.00599295726412189,0.0124));
#1508=CARTESIAN_POINT('',(-0.0281288614658782,-0.00599295726412189,0.0144));
#1509=CARTESIAN_POINT('',(-0.0281953962298758,-0.00566832306145039,0.0124));
#1510=CARTESIAN_POINT('',(-0.0281953962298758,-0.00566832306145039,0.0144));
#1511=CARTESIAN_POINT('',(-0.0281953962298758,-0.00528852045029756,0.0124));
#1512=CARTESIAN_POINT('',(-0.0281953962298758,-0.00528852045029756,0.0144));
#1513=CARTESIAN_POINT('',(-0.0279957919378831,-0.00626242305831208,0.0124));
#1514=CARTESIAN_POINT('',(-0.0279957919378831,-0.00626242305831208,0.0124));
#1515=CARTESIAN_POINT('',(-0.0279957919378831,-0.00626242305831208,0.0124));
#1516=CARTESIAN_POINT('',(-0.0281953962298758,-0.0058582243670268,0.0124));
#1517=CARTESIAN_POINT('',(-0.0281953962298758,-0.00528852045029756,0.0124));
#1518=CARTESIAN_POINT('',(-0.0274531177690278,-0.00688244389031449,0.0124));
#1519=CARTESIAN_POINT('',(-0.0274531177690278,-0.00688244389031449,0.0144));
#1520=CARTESIAN_POINT('',(-0.0276818310202695,-0.00673856246316973,0.0124));
#1521=CARTESIAN_POINT('',(-0.0276818310202695,-0.00673856246316973,0.0144));
#1522=CARTESIAN_POINT('',(-0.0278627224098879,-0.00653188885250226,0.0124));
#1523=CARTESIAN_POINT('',(-0.0278627224098879,-0.00653188885250226,0.0144));
#1524=CARTESIAN_POINT('',(-0.0279957919378831,-0.00626242305831208,0.0124));
#1525=CARTESIAN_POINT('',(-0.0279957919378831,-0.00626242305831208,0.0144));
#1526=CARTESIAN_POINT('',(-0.0274531177690278,-0.00688244389031449,0.0124));
#1527=CARTESIAN_POINT('',(-0.0277961876458903,-0.00666662174959735,0.0124));
#1528=CARTESIAN_POINT('',(-0.0279957919378831,-0.00626242305831208,0.0124));
#1529=CARTESIAN_POINT('',(0.00182674459592829,-0.00495517174958258,0.0124));
#1530=MECHANICAL_DESIGN_GEOMETRIC_PRESENTATION_REPRESENTATION('',(#873),
#1531);
#1531=(
GEOMETRIC_REPRESENTATION_CONTEXT(3)
GLOBAL_UNCERTAINTY_ASSIGNED_CONTEXT((#1532))
GLOBAL_UNIT_ASSIGNED_CONTEXT((#1535,#1534,#1533))
REPRESENTATION_CONTEXT('Left Button','TOP_LEVEL_ASSEMBLY_PART')
);
#1532=UNCERTAINTY_MEASURE_WITH_UNIT(LENGTH_MEASURE(2.E-5),#1535,
'DISTANCE_ACCURACY_VALUE','Maximum Tolerance applied to model');
#1533=(
NAMED_UNIT(*)
SI_UNIT($,.STERADIAN.)
SOLID_ANGLE_UNIT()
);
#1534=(
NAMED_UNIT(*)
PLANE_ANGLE_UNIT()
SI_UNIT($,.RADIAN.)
);
#1535=(
LENGTH_UNIT()
NAMED_UNIT(*)
SI_UNIT($,.METRE.)
);
#1536=PRODUCT_DEFINITION_SHAPE('','',#1537);
#1537=PRODUCT_DEFINITION('','',#1539,#1538);
#1538=PRODUCT_DEFINITION_CONTEXT('',#1545,'design');
#1539=PRODUCT_DEFINITION_FORMATION_WITH_SPECIFIED_SOURCE('','',#1541,
 .NOT_KNOWN.);
#1540=PRODUCT_RELATED_PRODUCT_CATEGORY('','',(#1541));
#1541=PRODUCT('Left Button','Left Button','Left Button',(#1543));
#1542=PRODUCT_CATEGORY('','');
#1543=PRODUCT_CONTEXT('',#1545,'mechanical');
#1544=APPLICATION_PROTOCOL_DEFINITION('international standard',
'ap242_managed_model_based_3d_engineering',2020,#1545);
#1545=APPLICATION_CONTEXT('managed model based 3d engineering');
ENDSEC;
END-ISO-10303-21;
