ISO-10303-21;
HEADER;
/* Generated by software containing ST-Developer
 * from STEP Tools, Inc. (www.steptools.com) 
 */
/* OPTION: using custom renumber hook */

FILE_DESCRIPTION(
/* description */ ('STEP AP242 Edition 2',
'CAx-IF Rec.Pracs.---Representation and Presentation of Product Manufa
cturing Information (PMI)---4.0---2014-10-13',
'CAx-IF Rec.Pracs.---3D Tessellated Geometry---0.4---2014-09-14','2;1',
'CAx-IF Rec.Pracs.---User Defined Attributes---1.5---2016-08-15'),
/* implementation_level */ '2;1');

FILE_NAME(
/* name */ 'Part Studio 1 - USB C COVER',
/* time_stamp */ '2026-06-04T23:59:11Z',
/* author */ (''),
/* organization */ (''),
/* preprocessor_version */ 'ST-DEVELOPER v20',
/* originating_system */ 'ONSHAPE BY PTC INC, 1.215',
/* authorisation */ '  ');

FILE_SCHEMA (('AP242_MANAGED_MODEL_BASED_3D_ENGINEERING_MIM_LF { 1 0 10303 442 3 1 4 }'));
ENDSEC;

DATA;
#10=SHAPE_REPRESENTATION_RELATIONSHIP('','',#447,#11);
#11=ADVANCED_BREP_SHAPE_REPRESENTATION('',(#445),#741);
#12=CIRCLE('',#451,0.00055526911934582);
#13=CIRCLE('',#452,0.00055526911934582);
#14=CIRCLE('',#455,0.000555269119345793);
#15=CIRCLE('',#456,0.000555269119345793);
#16=CIRCLE('',#459,0.000555269119345791);
#17=CIRCLE('',#460,0.000555269119345791);
#18=CIRCLE('',#467,0.000555269119345815);
#19=CIRCLE('',#468,0.000555269119345815);
#20=CIRCLE('',#471,0.000555269119345793);
#21=CIRCLE('',#472,0.000555269119345816);
#22=CIRCLE('',#473,0.000555269119345819);
#23=CIRCLE('',#474,0.000555269119345791);
#24=CIRCLE('',#476,0.000555269119345791);
#25=CIRCLE('',#477,0.000555269119345819);
#26=CIRCLE('',#478,0.000555269119345816);
#27=CIRCLE('',#479,0.000555269119345793);
#28=CYLINDRICAL_SURFACE('',#450,0.00055526911934582);
#29=CYLINDRICAL_SURFACE('',#454,0.000555269119345793);
#30=CYLINDRICAL_SURFACE('',#458,0.000555269119345791);
#31=CYLINDRICAL_SURFACE('',#466,0.000555269119345815);
#32=CYLINDRICAL_SURFACE('',#480,0.000555269119345793);
#33=CYLINDRICAL_SURFACE('',#482,0.000555269119345816);
#34=CYLINDRICAL_SURFACE('',#484,0.000555269119345819);
#35=CYLINDRICAL_SURFACE('',#486,0.000555269119345791);
#36=ORIENTED_EDGE('',*,*,#156,.T.);
#37=ORIENTED_EDGE('',*,*,#157,.F.);
#38=ORIENTED_EDGE('',*,*,#158,.F.);
#39=ORIENTED_EDGE('',*,*,#159,.T.);
#40=ORIENTED_EDGE('',*,*,#160,.T.);
#41=ORIENTED_EDGE('',*,*,#161,.F.);
#42=ORIENTED_EDGE('',*,*,#162,.F.);
#43=ORIENTED_EDGE('',*,*,#157,.T.);
#44=ORIENTED_EDGE('',*,*,#163,.T.);
#45=ORIENTED_EDGE('',*,*,#164,.F.);
#46=ORIENTED_EDGE('',*,*,#165,.F.);
#47=ORIENTED_EDGE('',*,*,#161,.T.);
#48=ORIENTED_EDGE('',*,*,#166,.T.);
#49=ORIENTED_EDGE('',*,*,#167,.F.);
#50=ORIENTED_EDGE('',*,*,#168,.F.);
#51=ORIENTED_EDGE('',*,*,#164,.T.);
#52=ORIENTED_EDGE('',*,*,#169,.F.);
#53=ORIENTED_EDGE('',*,*,#170,.F.);
#54=ORIENTED_EDGE('',*,*,#171,.T.);
#55=ORIENTED_EDGE('',*,*,#167,.T.);
#56=ORIENTED_EDGE('',*,*,#172,.T.);
#57=ORIENTED_EDGE('',*,*,#173,.F.);
#58=ORIENTED_EDGE('',*,*,#174,.F.);
#59=ORIENTED_EDGE('',*,*,#170,.T.);
#60=ORIENTED_EDGE('',*,*,#175,.F.);
#61=ORIENTED_EDGE('',*,*,#176,.F.);
#62=ORIENTED_EDGE('',*,*,#177,.T.);
#63=ORIENTED_EDGE('',*,*,#173,.T.);
#64=ORIENTED_EDGE('',*,*,#178,.F.);
#65=ORIENTED_EDGE('',*,*,#179,.F.);
#66=ORIENTED_EDGE('',*,*,#180,.T.);
#67=ORIENTED_EDGE('',*,*,#181,.T.);
#68=ORIENTED_EDGE('',*,*,#182,.T.);
#69=ORIENTED_EDGE('',*,*,#183,.F.);
#70=ORIENTED_EDGE('',*,*,#184,.F.);
#71=ORIENTED_EDGE('',*,*,#179,.T.);
#72=ORIENTED_EDGE('',*,*,#185,.T.);
#73=ORIENTED_EDGE('',*,*,#186,.F.);
#74=ORIENTED_EDGE('',*,*,#187,.F.);
#75=ORIENTED_EDGE('',*,*,#183,.T.);
#76=ORIENTED_EDGE('',*,*,#188,.F.);
#77=ORIENTED_EDGE('',*,*,#181,.F.);
#78=ORIENTED_EDGE('',*,*,#189,.T.);
#79=ORIENTED_EDGE('',*,*,#186,.T.);
#80=ORIENTED_EDGE('',*,*,#190,.T.);
#81=ORIENTED_EDGE('',*,*,#159,.F.);
#82=ORIENTED_EDGE('',*,*,#191,.F.);
#83=ORIENTED_EDGE('',*,*,#176,.T.);
#84=ORIENTED_EDGE('',*,*,#178,.T.);
#85=ORIENTED_EDGE('',*,*,#188,.T.);
#86=ORIENTED_EDGE('',*,*,#185,.F.);
#87=ORIENTED_EDGE('',*,*,#182,.F.);
#88=ORIENTED_EDGE('',*,*,#156,.F.);
#89=ORIENTED_EDGE('',*,*,#190,.F.);
#90=ORIENTED_EDGE('',*,*,#175,.T.);
#91=ORIENTED_EDGE('',*,*,#172,.F.);
#92=ORIENTED_EDGE('',*,*,#169,.T.);
#93=ORIENTED_EDGE('',*,*,#166,.F.);
#94=ORIENTED_EDGE('',*,*,#163,.F.);
#95=ORIENTED_EDGE('',*,*,#160,.F.);
#96=ORIENTED_EDGE('',*,*,#191,.T.);
#97=ORIENTED_EDGE('',*,*,#158,.T.);
#98=ORIENTED_EDGE('',*,*,#162,.T.);
#99=ORIENTED_EDGE('',*,*,#165,.T.);
#100=ORIENTED_EDGE('',*,*,#168,.T.);
#101=ORIENTED_EDGE('',*,*,#171,.F.);
#102=ORIENTED_EDGE('',*,*,#174,.T.);
#103=ORIENTED_EDGE('',*,*,#177,.F.);
#104=ORIENTED_EDGE('',*,*,#192,.T.);
#105=ORIENTED_EDGE('',*,*,#193,.F.);
#106=ORIENTED_EDGE('',*,*,#194,.F.);
#107=ORIENTED_EDGE('',*,*,#195,.F.);
#108=ORIENTED_EDGE('',*,*,#196,.F.);
#109=ORIENTED_EDGE('',*,*,#197,.F.);
#110=ORIENTED_EDGE('',*,*,#198,.T.);
#111=ORIENTED_EDGE('',*,*,#199,.F.);
#112=ORIENTED_EDGE('',*,*,#200,.F.);
#113=ORIENTED_EDGE('',*,*,#201,.T.);
#114=ORIENTED_EDGE('',*,*,#202,.F.);
#115=ORIENTED_EDGE('',*,*,#203,.T.);
#116=ORIENTED_EDGE('',*,*,#204,.T.);
#117=ORIENTED_EDGE('',*,*,#205,.T.);
#118=ORIENTED_EDGE('',*,*,#206,.T.);
#119=ORIENTED_EDGE('',*,*,#207,.T.);
#120=ORIENTED_EDGE('',*,*,#193,.T.);
#121=ORIENTED_EDGE('',*,*,#208,.F.);
#122=ORIENTED_EDGE('',*,*,#207,.F.);
#123=ORIENTED_EDGE('',*,*,#209,.T.);
#124=ORIENTED_EDGE('',*,*,#194,.T.);
#125=ORIENTED_EDGE('',*,*,#209,.F.);
#126=ORIENTED_EDGE('',*,*,#206,.F.);
#127=ORIENTED_EDGE('',*,*,#210,.T.);
#128=ORIENTED_EDGE('',*,*,#195,.T.);
#129=ORIENTED_EDGE('',*,*,#210,.F.);
#130=ORIENTED_EDGE('',*,*,#205,.F.);
#131=ORIENTED_EDGE('',*,*,#211,.T.);
#132=ORIENTED_EDGE('',*,*,#196,.T.);
#133=ORIENTED_EDGE('',*,*,#211,.F.);
#134=ORIENTED_EDGE('',*,*,#204,.F.);
#135=ORIENTED_EDGE('',*,*,#212,.T.);
#136=ORIENTED_EDGE('',*,*,#197,.T.);
#137=ORIENTED_EDGE('',*,*,#212,.F.);
#138=ORIENTED_EDGE('',*,*,#203,.F.);
#139=ORIENTED_EDGE('',*,*,#213,.T.);
#140=ORIENTED_EDGE('',*,*,#198,.F.);
#141=ORIENTED_EDGE('',*,*,#213,.F.);
#142=ORIENTED_EDGE('',*,*,#202,.T.);
#143=ORIENTED_EDGE('',*,*,#214,.T.);
#144=ORIENTED_EDGE('',*,*,#199,.T.);
#145=ORIENTED_EDGE('',*,*,#214,.F.);
#146=ORIENTED_EDGE('',*,*,#201,.F.);
#147=ORIENTED_EDGE('',*,*,#215,.T.);
#148=ORIENTED_EDGE('',*,*,#192,.F.);
#149=ORIENTED_EDGE('',*,*,#215,.F.);
#150=ORIENTED_EDGE('',*,*,#200,.T.);
#151=ORIENTED_EDGE('',*,*,#208,.T.);
#152=ORIENTED_EDGE('',*,*,#180,.F.);
#153=ORIENTED_EDGE('',*,*,#184,.T.);
#154=ORIENTED_EDGE('',*,*,#187,.T.);
#155=ORIENTED_EDGE('',*,*,#189,.F.);
#156=EDGE_CURVE('',#216,#217,#256,.T.);
#157=EDGE_CURVE('',#218,#217,#257,.T.);
#158=EDGE_CURVE('',#219,#218,#258,.T.);
#159=EDGE_CURVE('',#219,#216,#259,.T.);
#160=EDGE_CURVE('',#217,#220,#12,.T.);
#161=EDGE_CURVE('',#221,#220,#260,.T.);
#162=EDGE_CURVE('',#218,#221,#13,.T.);
#163=EDGE_CURVE('',#220,#222,#261,.T.);
#164=EDGE_CURVE('',#223,#222,#262,.T.);
#165=EDGE_CURVE('',#221,#223,#263,.T.);
#166=EDGE_CURVE('',#222,#224,#14,.T.);
#167=EDGE_CURVE('',#225,#224,#264,.T.);
#168=EDGE_CURVE('',#223,#225,#15,.T.);
#169=EDGE_CURVE('',#226,#224,#265,.T.);
#170=EDGE_CURVE('',#227,#226,#266,.T.);
#171=EDGE_CURVE('',#227,#225,#267,.T.);
#172=EDGE_CURVE('',#226,#228,#16,.T.);
#173=EDGE_CURVE('',#229,#228,#268,.T.);
#174=EDGE_CURVE('',#227,#229,#17,.T.);
#175=EDGE_CURVE('',#230,#228,#269,.T.);
#176=EDGE_CURVE('',#231,#230,#270,.T.);
#177=EDGE_CURVE('',#231,#229,#271,.T.);
#178=EDGE_CURVE('',#232,#233,#272,.T.);
#179=EDGE_CURVE('',#234,#232,#273,.T.);
#180=EDGE_CURVE('',#234,#235,#274,.T.);
#181=EDGE_CURVE('',#235,#233,#275,.T.);
#182=EDGE_CURVE('',#232,#236,#276,.T.);
#183=EDGE_CURVE('',#237,#236,#277,.T.);
#184=EDGE_CURVE('',#234,#237,#278,.T.);
#185=EDGE_CURVE('',#236,#238,#279,.T.);
#186=EDGE_CURVE('',#239,#238,#280,.T.);
#187=EDGE_CURVE('',#237,#239,#281,.T.);
#188=EDGE_CURVE('',#233,#238,#282,.T.);
#189=EDGE_CURVE('',#235,#239,#283,.T.);
#190=EDGE_CURVE('',#230,#216,#18,.T.);
#191=EDGE_CURVE('',#231,#219,#19,.T.);
#192=EDGE_CURVE('',#240,#241,#284,.T.);
#193=EDGE_CURVE('',#242,#241,#20,.T.);
#194=EDGE_CURVE('',#243,#242,#285,.T.);
#195=EDGE_CURVE('',#244,#243,#21,.T.);
#196=EDGE_CURVE('',#245,#244,#286,.T.);
#197=EDGE_CURVE('',#246,#245,#22,.T.);
#198=EDGE_CURVE('',#246,#247,#287,.T.);
#199=EDGE_CURVE('',#240,#247,#23,.T.);
#200=EDGE_CURVE('',#248,#249,#288,.T.);
#201=EDGE_CURVE('',#248,#250,#24,.T.);
#202=EDGE_CURVE('',#251,#250,#289,.T.);
#203=EDGE_CURVE('',#251,#252,#25,.T.);
#204=EDGE_CURVE('',#252,#253,#290,.T.);
#205=EDGE_CURVE('',#253,#254,#26,.T.);
#206=EDGE_CURVE('',#254,#255,#291,.T.);
#207=EDGE_CURVE('',#255,#249,#27,.T.);
#208=EDGE_CURVE('',#249,#241,#292,.T.);
#209=EDGE_CURVE('',#255,#242,#293,.T.);
#210=EDGE_CURVE('',#254,#243,#294,.T.);
#211=EDGE_CURVE('',#253,#244,#295,.T.);
#212=EDGE_CURVE('',#252,#245,#296,.T.);
#213=EDGE_CURVE('',#251,#246,#297,.T.);
#214=EDGE_CURVE('',#250,#247,#298,.T.);
#215=EDGE_CURVE('',#248,#240,#299,.T.);
#216=VERTEX_POINT('',#618);
#217=VERTEX_POINT('',#619);
#218=VERTEX_POINT('',#621);
#219=VERTEX_POINT('',#623);
#220=VERTEX_POINT('',#627);
#221=VERTEX_POINT('',#629);
#222=VERTEX_POINT('',#633);
#223=VERTEX_POINT('',#635);
#224=VERTEX_POINT('',#639);
#225=VERTEX_POINT('',#641);
#226=VERTEX_POINT('',#645);
#227=VERTEX_POINT('',#647);
#228=VERTEX_POINT('',#651);
#229=VERTEX_POINT('',#653);
#230=VERTEX_POINT('',#657);
#231=VERTEX_POINT('',#659);
#232=VERTEX_POINT('',#663);
#233=VERTEX_POINT('',#664);
#234=VERTEX_POINT('',#666);
#235=VERTEX_POINT('',#668);
#236=VERTEX_POINT('',#672);
#237=VERTEX_POINT('',#674);
#238=VERTEX_POINT('',#678);
#239=VERTEX_POINT('',#680);
#240=VERTEX_POINT('',#691);
#241=VERTEX_POINT('',#692);
#242=VERTEX_POINT('',#694);
#243=VERTEX_POINT('',#696);
#244=VERTEX_POINT('',#698);
#245=VERTEX_POINT('',#700);
#246=VERTEX_POINT('',#702);
#247=VERTEX_POINT('',#704);
#248=VERTEX_POINT('',#708);
#249=VERTEX_POINT('',#709);
#250=VERTEX_POINT('',#711);
#251=VERTEX_POINT('',#713);
#252=VERTEX_POINT('',#715);
#253=VERTEX_POINT('',#717);
#254=VERTEX_POINT('',#719);
#255=VERTEX_POINT('',#721);
#256=LINE('',#617,#300);
#257=LINE('',#620,#301);
#258=LINE('',#622,#302);
#259=LINE('',#624,#303);
#260=LINE('',#628,#304);
#261=LINE('',#632,#305);
#262=LINE('',#634,#306);
#263=LINE('',#636,#307);
#264=LINE('',#640,#308);
#265=LINE('',#644,#309);
#266=LINE('',#646,#310);
#267=LINE('',#648,#311);
#268=LINE('',#652,#312);
#269=LINE('',#656,#313);
#270=LINE('',#658,#314);
#271=LINE('',#660,#315);
#272=LINE('',#662,#316);
#273=LINE('',#665,#317);
#274=LINE('',#667,#318);
#275=LINE('',#669,#319);
#276=LINE('',#671,#320);
#277=LINE('',#673,#321);
#278=LINE('',#675,#322);
#279=LINE('',#677,#323);
#280=LINE('',#679,#324);
#281=LINE('',#681,#325);
#282=LINE('',#683,#326);
#283=LINE('',#684,#327);
#284=LINE('',#690,#328);
#285=LINE('',#695,#329);
#286=LINE('',#699,#330);
#287=LINE('',#703,#331);
#288=LINE('',#707,#332);
#289=LINE('',#712,#333);
#290=LINE('',#716,#334);
#291=LINE('',#720,#335);
#292=LINE('',#724,#336);
#293=LINE('',#725,#337);
#294=LINE('',#727,#338);
#295=LINE('',#729,#339);
#296=LINE('',#731,#340);
#297=LINE('',#733,#341);
#298=LINE('',#735,#342);
#299=LINE('',#737,#343);
#300=VECTOR('',#493,1.);
#301=VECTOR('',#494,1.);
#302=VECTOR('',#495,1.);
#303=VECTOR('',#496,1.);
#304=VECTOR('',#501,1.);
#305=VECTOR('',#506,1.);
#306=VECTOR('',#507,1.);
#307=VECTOR('',#508,1.);
#308=VECTOR('',#513,1.);
#309=VECTOR('',#518,1.);
#310=VECTOR('',#519,1.);
#311=VECTOR('',#520,1.);
#312=VECTOR('',#525,1.);
#313=VECTOR('',#530,1.);
#314=VECTOR('',#531,1.);
#315=VECTOR('',#532,1.);
#316=VECTOR('',#535,1.);
#317=VECTOR('',#536,1.);
#318=VECTOR('',#537,1.);
#319=VECTOR('',#538,1.);
#320=VECTOR('',#541,1.);
#321=VECTOR('',#542,1.);
#322=VECTOR('',#543,1.);
#323=VECTOR('',#546,1.);
#324=VECTOR('',#547,1.);
#325=VECTOR('',#548,1.);
#326=VECTOR('',#551,1.);
#327=VECTOR('',#552,1.);
#328=VECTOR('',#563,1.);
#329=VECTOR('',#566,1.);
#330=VECTOR('',#569,1.);
#331=VECTOR('',#572,1.);
#332=VECTOR('',#577,1.);
#333=VECTOR('',#580,1.);
#334=VECTOR('',#583,1.);
#335=VECTOR('',#586,1.);
#336=VECTOR('',#591,1.);
#337=VECTOR('',#592,1.);
#338=VECTOR('',#595,1.);
#339=VECTOR('',#598,1.);
#340=VECTOR('',#601,1.);
#341=VECTOR('',#604,1.);
#342=VECTOR('',#607,1.);
#343=VECTOR('',#610,1.);
#344=EDGE_LOOP('',(#36,#37,#38,#39));
#345=EDGE_LOOP('',(#40,#41,#42,#43));
#346=EDGE_LOOP('',(#44,#45,#46,#47));
#347=EDGE_LOOP('',(#48,#49,#50,#51));
#348=EDGE_LOOP('',(#52,#53,#54,#55));
#349=EDGE_LOOP('',(#56,#57,#58,#59));
#350=EDGE_LOOP('',(#60,#61,#62,#63));
#351=EDGE_LOOP('',(#64,#65,#66,#67));
#352=EDGE_LOOP('',(#68,#69,#70,#71));
#353=EDGE_LOOP('',(#72,#73,#74,#75));
#354=EDGE_LOOP('',(#76,#77,#78,#79));
#355=EDGE_LOOP('',(#80,#81,#82,#83));
#356=EDGE_LOOP('',(#84,#85,#86,#87));
#357=EDGE_LOOP('',(#88,#89,#90,#91,#92,#93,#94,#95));
#358=EDGE_LOOP('',(#96,#97,#98,#99,#100,#101,#102,#103));
#359=EDGE_LOOP('',(#104,#105,#106,#107,#108,#109,#110,#111));
#360=EDGE_LOOP('',(#112,#113,#114,#115,#116,#117,#118,#119));
#361=EDGE_LOOP('',(#120,#121,#122,#123));
#362=EDGE_LOOP('',(#124,#125,#126,#127));
#363=EDGE_LOOP('',(#128,#129,#130,#131));
#364=EDGE_LOOP('',(#132,#133,#134,#135));
#365=EDGE_LOOP('',(#136,#137,#138,#139));
#366=EDGE_LOOP('',(#140,#141,#142,#143));
#367=EDGE_LOOP('',(#144,#145,#146,#147));
#368=EDGE_LOOP('',(#148,#149,#150,#151));
#369=EDGE_LOOP('',(#152,#153,#154,#155));
#370=FACE_BOUND('',#344,.T.);
#371=FACE_BOUND('',#345,.T.);
#372=FACE_BOUND('',#346,.T.);
#373=FACE_BOUND('',#347,.T.);
#374=FACE_BOUND('',#348,.T.);
#375=FACE_BOUND('',#349,.T.);
#376=FACE_BOUND('',#350,.T.);
#377=FACE_BOUND('',#351,.T.);
#378=FACE_BOUND('',#352,.T.);
#379=FACE_BOUND('',#353,.T.);
#380=FACE_BOUND('',#354,.T.);
#381=FACE_BOUND('',#355,.T.);
#382=FACE_BOUND('',#356,.T.);
#383=FACE_BOUND('',#357,.T.);
#384=FACE_BOUND('',#358,.T.);
#385=FACE_BOUND('',#359,.T.);
#386=FACE_BOUND('',#360,.T.);
#387=FACE_BOUND('',#361,.T.);
#388=FACE_BOUND('',#362,.T.);
#389=FACE_BOUND('',#363,.T.);
#390=FACE_BOUND('',#364,.T.);
#391=FACE_BOUND('',#365,.T.);
#392=FACE_BOUND('',#366,.T.);
#393=FACE_BOUND('',#367,.T.);
#394=FACE_BOUND('',#368,.T.);
#395=FACE_BOUND('',#369,.T.);
#396=PLANE('',#449);
#397=PLANE('',#453);
#398=PLANE('',#457);
#399=PLANE('',#461);
#400=PLANE('',#462);
#401=PLANE('',#463);
#402=PLANE('',#464);
#403=PLANE('',#465);
#404=PLANE('',#469);
#405=PLANE('',#470);
#406=PLANE('',#475);
#407=PLANE('',#481);
#408=PLANE('',#483);
#409=PLANE('',#485);
#410=PLANE('',#487);
#411=PLANE('',#488);
#412=ADVANCED_FACE('',(#370),#396,.F.);
#413=ADVANCED_FACE('',(#371),#28,.T.);
#414=ADVANCED_FACE('',(#372),#397,.F.);
#415=ADVANCED_FACE('',(#373),#29,.T.);
#416=ADVANCED_FACE('',(#374),#398,.T.);
#417=ADVANCED_FACE('',(#375),#30,.T.);
#418=ADVANCED_FACE('',(#376),#399,.T.);
#419=ADVANCED_FACE('',(#377),#400,.T.);
#420=ADVANCED_FACE('',(#378),#401,.F.);
#421=ADVANCED_FACE('',(#379),#402,.F.);
#422=ADVANCED_FACE('',(#380),#403,.T.);
#423=ADVANCED_FACE('',(#381),#31,.T.);
#424=ADVANCED_FACE('',(#382,#383),#404,.F.);
#425=ADVANCED_FACE('',(#384,#385),#405,.F.);
#426=ADVANCED_FACE('',(#386),#406,.T.);
#427=ADVANCED_FACE('',(#387),#32,.T.);
#428=ADVANCED_FACE('',(#388),#407,.F.);
#429=ADVANCED_FACE('',(#389),#33,.T.);
#430=ADVANCED_FACE('',(#390),#408,.F.);
#431=ADVANCED_FACE('',(#391),#34,.T.);
#432=ADVANCED_FACE('',(#392),#409,.T.);
#433=ADVANCED_FACE('',(#393),#35,.T.);
#434=ADVANCED_FACE('',(#394),#410,.T.);
#435=ADVANCED_FACE('',(#395),#411,.F.);
#436=CLOSED_SHELL('',(#412,#413,#414,#415,#416,#417,#418,#419,#420,#421,
#422,#423,#424,#425,#426,#427,#428,#429,#430,#431,#432,#433,#434,#435));
#437=STYLED_ITEM('',(#438),#445);
#438=PRESENTATION_STYLE_ASSIGNMENT((#439));
#439=SURFACE_STYLE_USAGE(.BOTH.,#440);
#440=SURFACE_SIDE_STYLE('',(#441));
#441=SURFACE_STYLE_FILL_AREA(#442);
#442=FILL_AREA_STYLE('',(#443));
#443=FILL_AREA_STYLE_COLOUR('',#444);
#444=COLOUR_RGB('',0.647058823529412,0.647058823529412,0.647058823529412);
#445=MANIFOLD_SOLID_BREP('USB C COVER',#436);
#446=SHAPE_DEFINITION_REPRESENTATION(#746,#447);
#447=SHAPE_REPRESENTATION('USB C COVER',(#448),#741);
#448=AXIS2_PLACEMENT_3D('',#615,#489,#490);
#449=AXIS2_PLACEMENT_3D('',#616,#491,#492);
#450=AXIS2_PLACEMENT_3D('',#625,#497,#498);
#451=AXIS2_PLACEMENT_3D('',#626,#499,#500);
#452=AXIS2_PLACEMENT_3D('',#630,#502,#503);
#453=AXIS2_PLACEMENT_3D('',#631,#504,#505);
#454=AXIS2_PLACEMENT_3D('',#637,#509,#510);
#455=AXIS2_PLACEMENT_3D('',#638,#511,#512);
#456=AXIS2_PLACEMENT_3D('',#642,#514,#515);
#457=AXIS2_PLACEMENT_3D('',#643,#516,#517);
#458=AXIS2_PLACEMENT_3D('',#649,#521,#522);
#459=AXIS2_PLACEMENT_3D('',#650,#523,#524);
#460=AXIS2_PLACEMENT_3D('',#654,#526,#527);
#461=AXIS2_PLACEMENT_3D('',#655,#528,#529);
#462=AXIS2_PLACEMENT_3D('',#661,#533,#534);
#463=AXIS2_PLACEMENT_3D('',#670,#539,#540);
#464=AXIS2_PLACEMENT_3D('',#676,#544,#545);
#465=AXIS2_PLACEMENT_3D('',#682,#549,#550);
#466=AXIS2_PLACEMENT_3D('',#685,#553,#554);
#467=AXIS2_PLACEMENT_3D('',#686,#555,#556);
#468=AXIS2_PLACEMENT_3D('',#687,#557,#558);
#469=AXIS2_PLACEMENT_3D('',#688,#559,#560);
#470=AXIS2_PLACEMENT_3D('',#689,#561,#562);
#471=AXIS2_PLACEMENT_3D('',#693,#564,#565);
#472=AXIS2_PLACEMENT_3D('',#697,#567,#568);
#473=AXIS2_PLACEMENT_3D('',#701,#570,#571);
#474=AXIS2_PLACEMENT_3D('',#705,#573,#574);
#475=AXIS2_PLACEMENT_3D('',#706,#575,#576);
#476=AXIS2_PLACEMENT_3D('',#710,#578,#579);
#477=AXIS2_PLACEMENT_3D('',#714,#581,#582);
#478=AXIS2_PLACEMENT_3D('',#718,#584,#585);
#479=AXIS2_PLACEMENT_3D('',#722,#587,#588);
#480=AXIS2_PLACEMENT_3D('',#723,#589,#590);
#481=AXIS2_PLACEMENT_3D('',#726,#593,#594);
#482=AXIS2_PLACEMENT_3D('',#728,#596,#597);
#483=AXIS2_PLACEMENT_3D('',#730,#599,#600);
#484=AXIS2_PLACEMENT_3D('',#732,#602,#603);
#485=AXIS2_PLACEMENT_3D('',#734,#605,#606);
#486=AXIS2_PLACEMENT_3D('',#736,#608,#609);
#487=AXIS2_PLACEMENT_3D('',#738,#611,#612);
#488=AXIS2_PLACEMENT_3D('',#739,#613,#614);
#489=DIRECTION('',(0.,0.,1.));
#490=DIRECTION('',(1.,0.,0.));
#491=DIRECTION('',(1.,0.,0.));
#492=DIRECTION('',(0.,0.,-1.));
#493=DIRECTION('',(0.,-1.,0.));
#494=DIRECTION('',(0.,0.,-1.));
#495=DIRECTION('',(0.,-1.,0.));
#496=DIRECTION('',(0.,0.,-1.));
#497=DIRECTION('',(0.,0.,-1.));
#498=DIRECTION('',(-1.,0.,0.));
#499=DIRECTION('',(0.,0.,1.));
#500=DIRECTION('',(1.,0.,0.));
#501=DIRECTION('',(0.,0.,-1.));
#502=DIRECTION('',(0.,0.,1.));
#503=DIRECTION('',(1.,0.,0.));
#504=DIRECTION('',(0.,1.,0.));
#505=DIRECTION('',(0.,0.,1.));
#506=DIRECTION('',(1.,0.,0.));
#507=DIRECTION('',(0.,0.,-1.));
#508=DIRECTION('',(1.,0.,0.));
#509=DIRECTION('',(0.,0.,-1.));
#510=DIRECTION('',(-1.,0.,0.));
#511=DIRECTION('',(0.,0.,1.));
#512=DIRECTION('',(1.,0.,0.));
#513=DIRECTION('',(0.,0.,-1.));
#514=DIRECTION('',(0.,0.,1.));
#515=DIRECTION('',(1.,0.,0.));
#516=DIRECTION('',(1.,0.,0.));
#517=DIRECTION('',(0.,0.,-1.));
#518=DIRECTION('',(0.,-1.,0.));
#519=DIRECTION('',(0.,0.,-1.));
#520=DIRECTION('',(0.,-1.,0.));
#521=DIRECTION('',(0.,0.,-1.));
#522=DIRECTION('',(-1.,0.,0.));
#523=DIRECTION('',(0.,0.,1.));
#524=DIRECTION('',(1.,0.,0.));
#525=DIRECTION('',(0.,0.,-1.));
#526=DIRECTION('',(0.,0.,1.));
#527=DIRECTION('',(1.,0.,0.));
#528=DIRECTION('',(0.,1.,0.));
#529=DIRECTION('',(0.,0.,1.));
#530=DIRECTION('',(1.,0.,0.));
#531=DIRECTION('',(0.,0.,-1.));
#532=DIRECTION('',(1.,0.,0.));
#533=DIRECTION('',(1.,0.,0.));
#534=DIRECTION('',(0.,0.,-1.));
#535=DIRECTION('',(0.,-1.,0.));
#536=DIRECTION('',(0.,0.,-1.));
#537=DIRECTION('',(0.,-1.,0.));
#538=DIRECTION('',(0.,0.,-1.));
#539=DIRECTION('',(0.,1.,0.));
#540=DIRECTION('',(0.,0.,1.));
#541=DIRECTION('',(1.,0.,0.));
#542=DIRECTION('',(0.,0.,-1.));
#543=DIRECTION('',(1.,0.,0.));
#544=DIRECTION('',(1.,0.,0.));
#545=DIRECTION('',(0.,0.,-1.));
#546=DIRECTION('',(0.,-1.,0.));
#547=DIRECTION('',(0.,0.,-1.));
#548=DIRECTION('',(0.,-1.,0.));
#549=DIRECTION('',(0.,1.,0.));
#550=DIRECTION('',(0.,0.,1.));
#551=DIRECTION('',(1.,0.,0.));
#552=DIRECTION('',(1.,0.,0.));
#553=DIRECTION('',(0.,0.,-1.));
#554=DIRECTION('',(-1.,0.,0.));
#555=DIRECTION('',(0.,0.,1.));
#556=DIRECTION('',(1.,0.,0.));
#557=DIRECTION('',(0.,0.,1.));
#558=DIRECTION('',(1.,0.,0.));
#559=DIRECTION('',(0.,0.,1.));
#560=DIRECTION('',(1.,0.,0.));
#561=DIRECTION('',(0.,0.,1.));
#562=DIRECTION('',(1.,0.,0.));
#563=DIRECTION('',(0.,-1.,0.));
#564=DIRECTION('',(0.,0.,1.));
#565=DIRECTION('',(1.,0.,0.));
#566=DIRECTION('',(1.,0.,0.));
#567=DIRECTION('',(0.,0.,1.));
#568=DIRECTION('',(1.,0.,0.));
#569=DIRECTION('',(0.,-1.,0.));
#570=DIRECTION('',(0.,0.,1.));
#571=DIRECTION('',(1.,0.,0.));
#572=DIRECTION('',(1.,0.,0.));
#573=DIRECTION('',(0.,0.,1.));
#574=DIRECTION('',(1.,0.,0.));
#575=DIRECTION('',(0.,0.,1.));
#576=DIRECTION('',(1.,0.,0.));
#577=DIRECTION('',(0.,-1.,0.));
#578=DIRECTION('',(0.,0.,1.));
#579=DIRECTION('',(1.,0.,0.));
#580=DIRECTION('',(1.,0.,0.));
#581=DIRECTION('',(0.,0.,1.));
#582=DIRECTION('',(1.,0.,0.));
#583=DIRECTION('',(0.,-1.,0.));
#584=DIRECTION('',(0.,0.,1.));
#585=DIRECTION('',(1.,0.,0.));
#586=DIRECTION('',(1.,0.,0.));
#587=DIRECTION('',(0.,0.,1.));
#588=DIRECTION('',(1.,0.,0.));
#589=DIRECTION('',(0.,0.,-1.));
#590=DIRECTION('',(-1.,0.,0.));
#591=DIRECTION('',(0.,0.,-1.));
#592=DIRECTION('',(0.,0.,-1.));
#593=DIRECTION('',(0.,1.,0.));
#594=DIRECTION('',(0.,0.,1.));
#595=DIRECTION('',(0.,0.,-1.));
#596=DIRECTION('',(0.,0.,-1.));
#597=DIRECTION('',(-1.,0.,0.));
#598=DIRECTION('',(0.,0.,-1.));
#599=DIRECTION('',(1.,0.,0.));
#600=DIRECTION('',(0.,0.,-1.));
#601=DIRECTION('',(0.,0.,-1.));
#602=DIRECTION('',(0.,0.,-1.));
#603=DIRECTION('',(-1.,0.,0.));
#604=DIRECTION('',(0.,0.,-1.));
#605=DIRECTION('',(0.,1.,0.));
#606=DIRECTION('',(0.,0.,1.));
#607=DIRECTION('',(0.,0.,-1.));
#608=DIRECTION('',(0.,0.,-1.));
#609=DIRECTION('',(-1.,0.,0.));
#610=DIRECTION('',(0.,0.,-1.));
#611=DIRECTION('',(1.,0.,0.));
#612=DIRECTION('',(0.,0.,-1.));
#613=DIRECTION('',(0.,0.,1.));
#614=DIRECTION('',(1.,0.,0.));
#615=CARTESIAN_POINT('',(0.,0.,0.));
#616=CARTESIAN_POINT('',(0.0817423548273031,0.0155698678044602,0.0015));
#617=CARTESIAN_POINT('',(0.0817423548273031,0.0155698678044602,0.));
#618=CARTESIAN_POINT('',(0.0817423548273031,0.0179645986851144,0.));
#619=CARTESIAN_POINT('',(0.0817423548273031,0.013175136923806,0.));
#620=CARTESIAN_POINT('',(0.0817423548273031,0.013175136923806,0.0015));
#621=CARTESIAN_POINT('',(0.0817423548273031,0.013175136923806,0.0015));
#622=CARTESIAN_POINT('',(0.0817423548273031,0.0155698678044602,0.0015));
#623=CARTESIAN_POINT('',(0.0817423548273031,0.0179645986851144,0.0015));
#624=CARTESIAN_POINT('',(0.0817423548273031,0.0179645986851144,0.0015));
#625=CARTESIAN_POINT('',(0.0822976239466489,0.0131751369238061,0.0015));
#626=CARTESIAN_POINT('',(0.0822976239466489,0.0131751369238061,0.));
#627=CARTESIAN_POINT('',(0.0822976239466489,0.0126198678044602,0.));
#628=CARTESIAN_POINT('',(0.0822976239466489,0.0126198678044602,0.0015));
#629=CARTESIAN_POINT('',(0.0822976239466489,0.0126198678044602,0.0015));
#630=CARTESIAN_POINT('',(0.0822976239466489,0.0131751369238061,0.0015));
#631=CARTESIAN_POINT('',(0.0892923548273031,0.0126198678044602,0.0015));
#632=CARTESIAN_POINT('',(0.0892923548273031,0.0126198678044602,0.));
#633=CARTESIAN_POINT('',(0.0962870857079573,0.0126198678044602,0.));
#634=CARTESIAN_POINT('',(0.0962870857079573,0.0126198678044602,0.0015));
#635=CARTESIAN_POINT('',(0.0962870857079573,0.0126198678044602,0.0015));
#636=CARTESIAN_POINT('',(0.0892923548273031,0.0126198678044602,0.0015));
#637=CARTESIAN_POINT('',(0.0962870857079573,0.013175136923806,0.0015));
#638=CARTESIAN_POINT('',(0.0962870857079573,0.013175136923806,0.));
#639=CARTESIAN_POINT('',(0.0968423548273031,0.013175136923806,0.));
#640=CARTESIAN_POINT('',(0.0968423548273031,0.013175136923806,0.0015));
#641=CARTESIAN_POINT('',(0.0968423548273031,0.013175136923806,0.0015));
#642=CARTESIAN_POINT('',(0.0962870857079573,0.013175136923806,0.0015));
#643=CARTESIAN_POINT('',(0.0968423548273031,0.0155698678044602,0.0015));
#644=CARTESIAN_POINT('',(0.0968423548273031,0.0155698678044602,0.));
#645=CARTESIAN_POINT('',(0.0968423548273031,0.0179645986851144,0.));
#646=CARTESIAN_POINT('',(0.0968423548273031,0.0179645986851144,0.0015));
#647=CARTESIAN_POINT('',(0.0968423548273031,0.0179645986851144,0.0015));
#648=CARTESIAN_POINT('',(0.0968423548273031,0.0155698678044602,0.0015));
#649=CARTESIAN_POINT('',(0.0962870857079573,0.0179645986851144,0.0015));
#650=CARTESIAN_POINT('',(0.0962870857079573,0.0179645986851144,0.));
#651=CARTESIAN_POINT('',(0.0962870857079573,0.0185198678044603,0.));
#652=CARTESIAN_POINT('',(0.0962870857079573,0.0185198678044603,0.0015));
#653=CARTESIAN_POINT('',(0.0962870857079573,0.0185198678044603,0.0015));
#654=CARTESIAN_POINT('',(0.0962870857079573,0.0179645986851144,0.0015));
#655=CARTESIAN_POINT('',(0.0892923548273031,0.0185198678044603,0.0015));
#656=CARTESIAN_POINT('',(0.0892923548273031,0.0185198678044603,0.));
#657=CARTESIAN_POINT('',(0.0822976239466489,0.0185198678044603,0.));
#658=CARTESIAN_POINT('',(0.0822976239466489,0.0185198678044603,0.0015));
#659=CARTESIAN_POINT('',(0.0822976239466489,0.0185198678044603,0.0015));
#660=CARTESIAN_POINT('',(0.0892923548273031,0.0185198678044603,0.0015));
#661=CARTESIAN_POINT('',(0.0821189015030861,0.0155734228901565,0.0015));
#662=CARTESIAN_POINT('',(0.0821189015030861,0.0155734228901565,0.));
#663=CARTESIAN_POINT('',(0.0821189015030861,0.0181602090597153,0.));
#664=CARTESIAN_POINT('',(0.0821189015030861,0.0129866367205977,0.));
#665=CARTESIAN_POINT('',(0.0821189015030861,0.0181602090597153,0.0015));
#666=CARTESIAN_POINT('',(0.0821189015030861,0.0181602090597153,0.0015));
#667=CARTESIAN_POINT('',(0.0821189015030861,0.0155734228901565,0.0015));
#668=CARTESIAN_POINT('',(0.0821189015030861,0.0129866367205977,0.0015));
#669=CARTESIAN_POINT('',(0.0821189015030861,0.0129866367205977,0.0015));
#670=CARTESIAN_POINT('',(0.0892970255434513,0.0181602090597153,0.0015));
#671=CARTESIAN_POINT('',(0.0892970255434513,0.0181602090597153,0.));
#672=CARTESIAN_POINT('',(0.0964751495838165,0.0181602090597153,0.));
#673=CARTESIAN_POINT('',(0.0964751495838165,0.0181602090597153,0.0015));
#674=CARTESIAN_POINT('',(0.0964751495838165,0.0181602090597153,0.0015));
#675=CARTESIAN_POINT('',(0.0892970255434513,0.0181602090597153,0.0015));
#676=CARTESIAN_POINT('',(0.0964751495838165,0.0155734228901565,0.0015));
#677=CARTESIAN_POINT('',(0.0964751495838165,0.0155734228901565,0.));
#678=CARTESIAN_POINT('',(0.0964751495838165,0.0129866367205977,0.));
#679=CARTESIAN_POINT('',(0.0964751495838165,0.0129866367205977,0.0015));
#680=CARTESIAN_POINT('',(0.0964751495838165,0.0129866367205977,0.0015));
#681=CARTESIAN_POINT('',(0.0964751495838165,0.0155734228901565,0.0015));
#682=CARTESIAN_POINT('',(0.0892970255434513,0.0129866367205977,0.0015));
#683=CARTESIAN_POINT('',(0.0892970255434513,0.0129866367205977,0.));
#684=CARTESIAN_POINT('',(0.0892970255434513,0.0129866367205977,0.0015));
#685=CARTESIAN_POINT('',(0.0822976239466489,0.0179645986851144,0.0015));
#686=CARTESIAN_POINT('',(0.0822976239466489,0.0179645986851144,0.));
#687=CARTESIAN_POINT('',(0.0822976239466489,0.0179645986851144,0.0015));
#688=CARTESIAN_POINT('',(0.0892923548273031,0.0155698678044602,0.));
#689=CARTESIAN_POINT('',(0.0892555369853973,0.0155526343733073,0.0015));
#690=CARTESIAN_POINT('',(0.0972929155704663,0.0155526343733073,0.0015));
#691=CARTESIAN_POINT('',(0.0972929155704663,0.0190601681829195,0.0015));
#692=CARTESIAN_POINT('',(0.0972929155704663,0.012045100563695,0.0015));
#693=CARTESIAN_POINT('',(0.0967376464511205,0.0120451005636949,0.0015));
#694=CARTESIAN_POINT('',(0.0967376464511205,0.0114898314443491,0.0015));
#695=CARTESIAN_POINT('',(0.0892555369853973,0.0114898314443491,0.0015));
#696=CARTESIAN_POINT('',(0.0817734275196742,0.0114898314443491,0.0015));
#697=CARTESIAN_POINT('',(0.0817734275196742,0.012045100563695,0.0015));
#698=CARTESIAN_POINT('',(0.0812181584003284,0.012045100563695,0.0015));
#699=CARTESIAN_POINT('',(0.0812181584003284,0.0155526343733073,0.0015));
#700=CARTESIAN_POINT('',(0.0812181584003284,0.0190601681829195,0.0015));
#701=CARTESIAN_POINT('',(0.0817734275196742,0.0190601681829195,0.0015));
#702=CARTESIAN_POINT('',(0.0817734275196742,0.0196154373022653,0.0015));
#703=CARTESIAN_POINT('',(0.0892555369853973,0.0196154373022653,0.0015));
#704=CARTESIAN_POINT('',(0.0967376464511205,0.0196154373022653,0.0015));
#705=CARTESIAN_POINT('',(0.0967376464511205,0.0190601681829195,0.0015));
#706=CARTESIAN_POINT('',(0.0892555369853973,0.0155526343733073,0.0028));
#707=CARTESIAN_POINT('',(0.0972929155704663,0.0155526343733073,0.0028));
#708=CARTESIAN_POINT('',(0.0972929155704663,0.0190601681829195,0.0028));
#709=CARTESIAN_POINT('',(0.0972929155704663,0.012045100563695,0.0028));
#710=CARTESIAN_POINT('',(0.0967376464511205,0.0190601681829195,0.0028));
#711=CARTESIAN_POINT('',(0.0967376464511205,0.0196154373022653,0.0028));
#712=CARTESIAN_POINT('',(0.0892555369853973,0.0196154373022653,0.0028));
#713=CARTESIAN_POINT('',(0.0817734275196742,0.0196154373022653,0.0028));
#714=CARTESIAN_POINT('',(0.0817734275196742,0.0190601681829195,0.0028));
#715=CARTESIAN_POINT('',(0.0812181584003284,0.0190601681829195,0.0028));
#716=CARTESIAN_POINT('',(0.0812181584003284,0.0155526343733073,0.0028));
#717=CARTESIAN_POINT('',(0.0812181584003284,0.012045100563695,0.0028));
#718=CARTESIAN_POINT('',(0.0817734275196742,0.012045100563695,0.0028));
#719=CARTESIAN_POINT('',(0.0817734275196742,0.0114898314443491,0.0028));
#720=CARTESIAN_POINT('',(0.0892555369853973,0.0114898314443491,0.0028));
#721=CARTESIAN_POINT('',(0.0967376464511205,0.0114898314443491,0.0028));
#722=CARTESIAN_POINT('',(0.0967376464511205,0.0120451005636949,0.0028));
#723=CARTESIAN_POINT('',(0.0967376464511205,0.0120451005636949,0.0028));
#724=CARTESIAN_POINT('',(0.0972929155704663,0.012045100563695,0.0028));
#725=CARTESIAN_POINT('',(0.0967376464511205,0.0114898314443491,0.0028));
#726=CARTESIAN_POINT('',(0.0892555369853973,0.0114898314443491,0.0028));
#727=CARTESIAN_POINT('',(0.0817734275196742,0.0114898314443491,0.0028));
#728=CARTESIAN_POINT('',(0.0817734275196742,0.012045100563695,0.0028));
#729=CARTESIAN_POINT('',(0.0812181584003284,0.012045100563695,0.0028));
#730=CARTESIAN_POINT('',(0.0812181584003284,0.0155526343733073,0.0028));
#731=CARTESIAN_POINT('',(0.0812181584003284,0.0190601681829195,0.0028));
#732=CARTESIAN_POINT('',(0.0817734275196742,0.0190601681829195,0.0028));
#733=CARTESIAN_POINT('',(0.0817734275196742,0.0196154373022653,0.0028));
#734=CARTESIAN_POINT('',(0.0892555369853973,0.0196154373022653,0.0028));
#735=CARTESIAN_POINT('',(0.0967376464511205,0.0196154373022653,0.0028));
#736=CARTESIAN_POINT('',(0.0967376464511205,0.0190601681829195,0.0028));
#737=CARTESIAN_POINT('',(0.0972929155704663,0.0190601681829195,0.0028));
#738=CARTESIAN_POINT('',(0.0972929155704663,0.0155526343733073,0.0028));
#739=CARTESIAN_POINT('',(0.0892555369853973,0.0155526343733073,0.0015));
#740=MECHANICAL_DESIGN_GEOMETRIC_PRESENTATION_REPRESENTATION('',(#437),
#741);
#741=(
GEOMETRIC_REPRESENTATION_CONTEXT(3)
GLOBAL_UNCERTAINTY_ASSIGNED_CONTEXT((#742))
GLOBAL_UNIT_ASSIGNED_CONTEXT((#745,#744,#743))
REPRESENTATION_CONTEXT('USB C COVER','TOP_LEVEL_ASSEMBLY_PART')
);
#742=UNCERTAINTY_MEASURE_WITH_UNIT(LENGTH_MEASURE(1.E-8),#745,
'DISTANCE_ACCURACY_VALUE','Maximum Tolerance applied to model');
#743=(
NAMED_UNIT(*)
SI_UNIT($,.STERADIAN.)
SOLID_ANGLE_UNIT()
);
#744=(
NAMED_UNIT(*)
PLANE_ANGLE_UNIT()
SI_UNIT($,.RADIAN.)
);
#745=(
LENGTH_UNIT()
NAMED_UNIT(*)
SI_UNIT($,.METRE.)
);
#746=PRODUCT_DEFINITION_SHAPE('','',#747);
#747=PRODUCT_DEFINITION('','',#749,#748);
#748=PRODUCT_DEFINITION_CONTEXT('',#755,'design');
#749=PRODUCT_DEFINITION_FORMATION_WITH_SPECIFIED_SOURCE('','',#751,
 .NOT_KNOWN.);
#750=PRODUCT_RELATED_PRODUCT_CATEGORY('','',(#751));
#751=PRODUCT('USB C COVER','USB C COVER','USB C COVER',(#753));
#752=PRODUCT_CATEGORY('','');
#753=PRODUCT_CONTEXT('',#755,'mechanical');
#754=APPLICATION_PROTOCOL_DEFINITION('international standard',
'ap242_managed_model_based_3d_engineering',2020,#755);
#755=APPLICATION_CONTEXT('managed model based 3d engineering');
ENDSEC;
END-ISO-10303-21;
